<svg width="24" height="24" viewBox="0 0 24 24" fill="none" xmlns="http://www.w3.org/2000/svg">
<g clip-path="url(#clip0_216_1755)">
<path fill-rule="evenodd" clip-rule="evenodd" d="M5 3C4.46957 3 3.96086 3.21071 3.58579 3.58579C3.21071 3.96086 3 4.46957 3 5V19C3 19.5304 3.21071 20.0391 3.58579 20.4142C3.96086 20.7893 4.46957 21 5 21H19C19.5304 21 20.0391 20.7893 20.4142 20.4142C20.7893 20.0391 21 19.5304 21 19V5C21 4.46957 20.7893 3.96086 20.4142 3.58579C20.0391 3.21071 19.5304 3 19 3H5ZM16.95 9.796C17.1376 9.60849 17.2431 9.35412 17.2432 9.08885C17.2433 8.82358 17.138 8.56914 16.9505 8.3815C16.763 8.19386 16.5086 8.08839 16.2434 8.0883C15.9781 8.0882 15.7236 8.19349 15.536 8.381L10.586 13.331L8.465 11.21C8.37216 11.1171 8.26192 11.0434 8.14059 10.9931C8.01926 10.9428 7.8892 10.9168 7.75785 10.9168C7.6265 10.9168 7.49643 10.9426 7.37507 10.9928C7.2537 11.043 7.14341 11.1167 7.0505 11.2095C6.95759 11.3023 6.88388 11.4126 6.83357 11.5339C6.78326 11.6552 6.75734 11.7853 6.7573 11.9166C6.75725 12.048 6.78308 12.1781 6.8333 12.2994C6.88352 12.4208 6.95716 12.5311 7.05 12.624L9.808 15.382C9.91015 15.4842 10.0314 15.5653 10.1649 15.6206C10.2984 15.6759 10.4415 15.7044 10.586 15.7044C10.7305 15.7044 10.8736 15.6759 11.0071 15.6206C11.1406 15.5653 11.2618 15.4842 11.364 15.382L16.95 9.796Z" fill="#F97316"/>
</g>
<defs>
<clipPath id="clip0_216_1755">
<rect width="24" height="24" fill="white"/>
</clipPath>
</defs>
</svg>
