<svg width="21" height="19" viewBox="0 0 21 19" fill="none" xmlns="http://www.w3.org/2000/svg">
<path d="M10.4989 14.8438C10.1095 14.8438 9.72891 14.9482 9.40521 15.1439C9.08146 15.3397 8.82915 15.6178 8.68014 15.9433C8.53113 16.2687 8.49214 16.6268 8.56809 16.9723C8.64404 17.3178 8.83156 17.6352 9.10688 17.8843C9.38219 18.1334 9.73294 18.303 10.1148 18.3717C10.4967 18.4404 10.8925 18.4051 11.2522 18.2704C11.6119 18.1355 11.9193 17.9073 12.1357 17.6143C12.352 17.3215 12.4674 16.9771 12.4674 16.6248C12.4674 16.1525 12.26 15.6995 11.8909 15.3654C11.5217 15.0314 11.0209 14.8438 10.4989 14.8438Z" fill="#4FAF5A"/>
<path d="M10.4989 10.0938C10.1095 10.0938 9.72891 10.1982 9.40521 10.3939C9.08146 10.5897 8.82915 10.8678 8.68014 11.1933C8.53113 11.5187 8.49214 11.8768 8.56809 12.2223C8.64404 12.5678 8.83156 12.8852 9.10688 13.1343C9.38219 13.3834 9.73294 13.553 10.1148 13.6217C10.4967 13.6904 10.8925 13.6551 11.2522 13.5204C11.6119 13.3855 11.9193 13.1573 12.1357 12.8643C12.352 12.5715 12.4674 12.2271 12.4674 11.8748C12.4674 11.4025 12.26 10.9495 11.8909 10.6154C11.5217 10.2814 11.0209 10.0938 10.4989 10.0938Z" fill="#4FAF5A"/>
<path d="M10.4989 5.34375C10.1095 5.34375 9.72891 5.44821 9.40521 5.64391C9.08146 5.83965 8.82915 6.1178 8.68014 6.44326C8.53113 6.76871 8.49214 7.12682 8.56809 7.4723C8.64404 7.81779 8.83156 8.13517 9.10688 8.38426C9.38219 8.63336 9.73294 8.80302 10.1148 8.87173C10.4967 8.94045 10.8925 8.90514 11.2522 8.77036C11.6119 8.63554 11.9193 8.40726 12.1357 8.11435C12.352 7.82147 12.4674 7.47713 12.4674 7.12484C12.4674 6.65249 12.26 6.19946 11.8909 5.86542C11.5217 5.53141 11.0209 5.34375 10.4989 5.34375Z" fill="#4FAF5A"/>
<path d="M10.4989 0.59375C10.1095 0.59375 9.72891 0.69821 9.40521 0.893918C9.08146 1.08963 8.82915 1.36779 8.68014 1.69325C8.53113 2.0187 8.49214 2.37682 8.56809 2.72232C8.64404 3.06782 8.83156 3.38518 9.10688 3.63427C9.38219 3.88336 9.73294 4.05302 10.1148 4.12173C10.4967 4.19045 10.8925 4.15514 11.2522 4.02036C11.6119 3.88555 11.9193 3.65727 12.1357 3.36437C12.352 3.07147 12.4674 2.72711 12.4674 2.37485C12.4674 1.90247 12.26 1.44944 11.8909 1.11542C11.5217 0.781399 11.0209 0.59375 10.4989 0.59375Z" fill="#4FAF5A"/>
<path d="M15.7489 10.0938C15.3595 10.0938 14.9789 10.1982 14.6552 10.3939C14.3315 10.5897 14.0792 10.8678 13.9301 11.1933C13.7811 11.5187 13.7421 11.8768 13.8181 12.2223C13.894 12.5678 14.0816 12.8852 14.3569 13.1343C14.6322 13.3834 14.9829 13.553 15.3648 13.6217C15.7467 13.6904 16.1425 13.6551 16.5022 13.5204C16.8619 13.3855 17.1693 13.1573 17.3857 12.8643C17.602 12.5715 17.7174 12.2271 17.7174 11.8748C17.7174 11.4025 17.51 10.9495 17.1409 10.6154C16.7717 10.2814 16.2709 10.0938 15.7489 10.0938Z" fill="#4FAF5A"/>
<path d="M15.7489 5.34375C15.3595 5.34375 14.9789 5.44821 14.6552 5.64391C14.3315 5.83965 14.0792 6.1178 13.9301 6.44326C13.7811 6.76871 13.7421 7.12682 13.8181 7.4723C13.894 7.81779 14.0816 8.13517 14.3569 8.38426C14.6322 8.63336 14.9829 8.80302 15.3648 8.87173C15.7467 8.94045 16.1425 8.90514 16.5022 8.77036C16.8619 8.63554 17.1693 8.40726 17.3857 8.11435C17.602 7.82147 17.7174 7.47713 17.7174 7.12484C17.7174 6.65249 17.51 6.19946 17.1409 5.86542C16.7717 5.53141 16.2709 5.34375 15.7489 5.34375Z" fill="#4FAF5A"/>
<path d="M15.7489 0.59375C15.3595 0.59375 14.9789 0.69821 14.6552 0.893918C14.3315 1.08963 14.0792 1.36779 13.9301 1.69325C13.7811 2.0187 13.7421 2.37682 13.8181 2.72232C13.894 3.06782 14.0816 3.38518 14.3569 3.63427C14.6322 3.88336 14.9829 4.05302 15.3648 4.12173C15.7467 4.19045 16.1425 4.15514 16.5022 4.02036C16.8619 3.88555 17.1693 3.65727 17.3857 3.36437C17.602 3.07147 17.7174 2.72711 17.7174 2.37485C17.7174 1.90247 17.51 1.44944 17.1409 1.11542C16.7717 0.781399 16.2709 0.59375 15.7489 0.59375Z" fill="#4FAF5A"/>
<path d="M5.24982 10.0938C4.86048 10.0938 4.47986 10.1982 4.15616 10.3939C3.83242 10.5897 3.5801 10.8678 3.4311 11.1933C3.28211 11.5187 3.24312 11.8768 3.31908 12.2223C3.39503 12.5678 3.58252 12.8852 3.85783 13.1343C4.13315 13.3834 4.48393 13.553 4.86578 13.6217C5.24767 13.6904 5.64348 13.6551 6.00319 13.5204C6.3629 13.3855 6.67033 13.1573 6.88668 12.8643C7.10298 12.5715 7.21839 12.2271 7.21839 11.8748C7.21839 11.4025 7.01102 10.9495 6.64181 10.6154C6.27265 10.2814 5.77193 10.0938 5.24982 10.0938Z" fill="#4FAF5A"/>
<path d="M5.24982 5.34375C4.86048 5.34375 4.47986 5.44821 4.15616 5.64391C3.83242 5.83965 3.5801 6.1178 3.4311 6.44326C3.28211 6.76871 3.24312 7.12682 3.31908 7.4723C3.39503 7.81779 3.58252 8.13517 3.85783 8.38426C4.13315 8.63336 4.48393 8.80302 4.86578 8.87173C5.24767 8.94045 5.64348 8.90514 6.00319 8.77036C6.3629 8.63554 6.67033 8.40726 6.88668 8.11435C7.10298 7.82147 7.21839 7.47713 7.21839 7.12484C7.21839 6.65249 7.01102 6.19946 6.64181 5.86542C6.27265 5.53141 5.77193 5.34375 5.24982 5.34375Z" fill="#4FAF5A"/>
<path d="M5.24982 0.59375C4.86048 0.59375 4.47986 0.69821 4.15616 0.893918C3.83242 1.08963 3.5801 1.36779 3.4311 1.69325C3.28211 2.0187 3.24312 2.37682 3.31908 2.72232C3.39503 3.06782 3.58252 3.38518 3.85783 3.63427C4.13315 3.88336 4.48393 4.05302 4.86578 4.12173C5.24767 4.19045 5.64348 4.15514 6.00319 4.02036C6.3629 3.88555 6.67033 3.65727 6.88668 3.36437C7.10298 3.07147 7.21839 2.72711 7.21839 2.37485C7.21839 1.90247 7.01102 1.44944 6.64181 1.11542C6.27265 0.781399 5.77193 0.59375 5.24982 0.59375Z" fill="#4FAF5A"/>
</svg>
