<svg width="18" height="18" viewBox="0 0 18 18" fill="none" xmlns="http://www.w3.org/2000/svg">
<g clip-path="url(#clip0_89_4828)">
<g clip-path="url(#clip1_89_4828)">
<path d="M17.754 1.44138C18.0845 1.11091 18.0845 0.57654 17.754 0.249587C17.4235 -0.0773664 16.8892 -0.080882 16.5622 0.249587L13.4649 3.33982C13.1345 3.67029 13.1345 4.20466 13.4649 4.53162C13.7954 4.85857 14.3298 4.86209 14.6567 4.53162L17.7505 1.43787L17.754 1.44138ZM10.7403 0.959743C10.5224 0.741774 10.1638 0.741774 9.9458 0.959743L9.54502 1.35701C8.22666 2.67537 8.22666 4.81287 9.54502 6.13123L9.91064 6.49685L8.83838 7.56912C8.71885 6.60935 8.29346 5.67771 7.55518 4.93943L7.15791 4.54216C6.93994 4.3242 6.58135 4.3242 6.36338 4.54216L5.96611 4.93943C4.64775 6.25779 4.64775 8.39529 5.96611 9.71365L6.33174 10.0793L5.25947 11.1515C5.13994 10.1918 4.71455 9.26013 3.97627 8.52185L3.579 8.12107C3.36104 7.9031 3.00244 7.9031 2.78447 8.12107L2.38721 8.51834C1.06885 9.8367 1.06885 11.9742 2.38721 13.2926L2.75283 13.6582L0.330566 16.0804C-0.108887 16.5199 -0.108887 17.2336 0.330566 17.673C0.77002 18.1125 1.48369 18.1125 1.92314 17.673L4.34541 15.2508L4.77432 15.6797C6.09268 16.998 8.23018 16.998 9.54854 15.6797L9.9458 15.2824C10.1638 15.0644 10.1638 14.7058 9.9458 14.4879L9.54854 14.0906C8.78213 13.3242 7.80479 12.8918 6.80283 12.7933L7.92432 11.6719L8.35322 12.1008C9.67158 13.4191 11.8091 13.4191 13.1274 12.1008L13.5247 11.7035C13.7427 11.4855 13.7427 11.1269 13.5247 10.909L13.1274 10.5117C12.361 9.74529 11.3837 9.31287 10.3817 9.21443L11.5032 8.09295L11.9321 8.52185C13.2505 9.84021 15.388 9.84021 16.7063 8.52185L17.1036 8.12107C17.3216 7.9031 17.3216 7.54451 17.1036 7.32654L16.7063 6.92576C16.5235 6.74295 16.3337 6.58123 16.1298 6.43709L17.754 4.81638C18.0845 4.48591 18.0845 3.95154 17.754 3.62459C17.4235 3.29763 16.8892 3.29412 16.5622 3.62459L14.4739 5.71287C13.7497 5.55818 12.9974 5.58279 12.2837 5.7867C12.4981 5.03787 12.5157 4.24685 12.3329 3.49099L14.379 1.44138C14.7095 1.11091 14.7095 0.57654 14.379 0.249587C14.0485 -0.0773664 13.5142 -0.080882 13.1872 0.249587L11.57 1.85974C11.4399 1.68396 11.2958 1.51521 11.1341 1.35701L10.7403 0.959743Z" fill="#F59E0B"/>
</g>
</g>
<defs>
<clipPath id="clip0_89_4828">
<rect width="18" height="18" fill="white"/>
</clipPath>
<clipPath id="clip1_89_4828">
<path d="M0 0H18V18H0V0Z" fill="white"/>
</clipPath>
</defs>
</svg>
