<svg width="12" height="12" viewBox="0 0 12 12" fill="none" xmlns="http://www.w3.org/2000/svg">
<g clip-path="url(#clip0_89_4768)">
<path d="M6.00011 0.75C6.33292 0.75 6.63996 0.925781 6.80871 1.21406L11.8712 9.83906C12.0423 10.1297 12.0423 10.4883 11.8759 10.7789C11.7095 11.0695 11.3978 11.25 11.0626 11.25H0.937611C0.602455 11.25 0.290736 11.0695 0.12433 10.7789C-0.042076 10.4883 -0.0397323 10.1273 0.129018 9.83906L5.19152 1.21406C5.36027 0.925781 5.6673 0.75 6.00011 0.75ZM6.00011 3.75C5.68839 3.75 5.43761 4.00078 5.43761 4.3125V6.9375C5.43761 7.24922 5.68839 7.5 6.00011 7.5C6.31183 7.5 6.56261 7.24922 6.56261 6.9375V4.3125C6.56261 4.00078 6.31183 3.75 6.00011 3.75ZM6.75011 9C6.75011 8.80109 6.67109 8.61032 6.53044 8.46967C6.38979 8.32902 6.19902 8.25 6.00011 8.25C5.8012 8.25 5.61043 8.32902 5.46978 8.46967C5.32913 8.61032 5.25011 8.80109 5.25011 9C5.25011 9.19891 5.32913 9.38968 5.46978 9.53033C5.61043 9.67098 5.8012 9.75 6.00011 9.75C6.19902 9.75 6.38979 9.67098 6.53044 9.53033C6.67109 9.38968 6.75011 9.19891 6.75011 9Z" fill="#EF4444"/>
</g>
<defs>
<clipPath id="clip0_89_4768">
<path d="M0 0H12V12H0V0Z" fill="white"/>
</clipPath>
</defs>
</svg>
