<svg width="30" height="30" viewBox="0 0 30 30" fill="none" xmlns="http://www.w3.org/2000/svg">
<path d="M18.2109 11.4844L17.8055 22.0313M12.1945 22.0313L11.7891 11.4844M23.4703 7.72266C23.8711 7.78359 24.2695 7.84805 24.668 7.91719M23.4703 7.72266L22.2188 23.9918C22.1677 24.6542 21.8684 25.2729 21.3809 25.7241C20.8933 26.1754 20.2534 26.426 19.5891 26.4258H10.4109C9.7466 26.426 9.10667 26.1754 8.61912 25.7241C8.13157 25.2729 7.83233 24.6542 7.78125 23.9918L6.52969 7.72266M23.4703 7.72266C22.1178 7.51818 20.7583 7.363 19.3945 7.25742M6.52969 7.72266C6.12891 7.78242 5.73047 7.84688 5.33203 7.91602M6.52969 7.72266C7.88219 7.51819 9.24168 7.36301 10.6055 7.25742M19.3945 7.25742V6.18398C19.3945 4.80117 18.3281 3.64805 16.9453 3.60469C15.6488 3.56325 14.3512 3.56325 13.0547 3.60469C11.6719 3.64805 10.6055 4.80234 10.6055 6.18398V7.25742M19.3945 7.25742C16.4692 7.03134 13.5308 7.03134 10.6055 7.25742" stroke="white" stroke-linecap="round" stroke-linejoin="round"/>
</svg>
