<svg width="30" height="30" viewBox="0 0 30 30" fill="none" xmlns="http://www.w3.org/2000/svg">
<path d="M14.375 7.50001H5V25H22.5V15.625H25V26.25C24.9999 26.9403 24.4403 27.5 23.75 27.5H3.75C3.05974 27.5 2.50016 26.9403 2.5 26.25V6.25001L2.5061 6.12184C2.57026 5.49167 3.1029 5.00001 3.75 5.00001H14.375V7.50001ZM21.7114 2.78078C22.2024 2.38034 22.9261 2.40858 23.3838 2.86623L27.1338 6.61623L27.2192 6.71144C27.5928 7.16966 27.5929 7.83046 27.2192 8.28859L27.1338 8.3838L16.7676 18.75H11.25V13.2324L21.6162 2.86623L21.7114 2.78078ZM13.75 14.2676V16.25H15.7324L20.9912 10.9912L19.0087 9.0088L13.75 14.2676Z" fill="white"/>
</svg>
