
<svg width="12" height="12" viewBox="0 0 12 12" fill="none" xmlns="http://www.w3.org/2000/svg">
<path d="M12 12H0V0H12V12Z" stroke="#E5E7EB"/>
<path d="M0.0912838 1.28672C0.245971 0.958594 0.574096 0.75 0.937378 0.75H11.0624C11.4257 0.75 11.7538 0.958594 11.9085 1.28672C12.0632 1.61484 12.0163 2.00156 11.7866 2.28281L7.49988 7.52109V10.5C7.49988 10.7836 7.3405 11.0437 7.08503 11.1703C6.82957 11.2969 6.52722 11.2711 6.29988 11.1L4.79988 9.975C4.61003 9.83438 4.49988 9.61172 4.49988 9.375V7.52109L0.210815 2.28047C-0.0165287 2.00156 -0.0657475 1.6125 0.0912838 1.28672Z" fill="#15803D"/>
</svg>
