<svg width="16" height="18" viewBox="0 0 16 18" fill="none" xmlns="http://www.w3.org/2000/svg">
<g clip-path="url(#clip0_89_4864)">
<g clip-path="url(#clip1_89_4864)">
<path d="M7.875 3.9375C7.56563 3.9375 7.3125 3.68438 7.3125 3.375V2.8125C7.3125 1.25859 8.57109 0 10.125 0H10.6875C10.9969 0 11.25 0.253125 11.25 0.5625V1.125C11.25 2.67891 9.99141 3.9375 8.4375 3.9375H7.875ZM0 10.125C0 7.44258 1.25508 4.5 3.9375 4.5C4.89727 4.5 6.03633 4.86211 6.84492 5.17852C7.50586 5.43516 8.24766 5.43516 8.90859 5.17852C9.71367 4.86562 10.8562 4.5 11.816 4.5C14.4984 4.5 15.7535 7.44258 15.7535 10.125C15.7535 14.625 12.941 18 10.1285 18C9.54844 18 8.78906 17.768 8.31797 17.6027C8.0332 17.5043 7.72383 17.5043 7.43906 17.6027C6.96797 17.768 6.20859 18 5.62852 18C2.8125 18 0 14.625 0 10.125Z" fill="#22C55E"/>
</g>
</g>
<defs>
<clipPath id="clip0_89_4864">
<rect width="15.75" height="18" fill="white"/>
</clipPath>
<clipPath id="clip1_89_4864">
<path d="M0 0H15.75V18H0V0Z" fill="white"/>
</clipPath>
</defs>
</svg>
