<svg width="18" height="18" viewBox="0 0 18 18" fill="none" xmlns="http://www.w3.org/2000/svg">
<path d="M5.625 9.32344C5.625 9.62227 5.50547 9.90703 5.29453 10.118L4.35234 11.0602C3.91992 11.4926 3.20977 11.4609 2.61563 11.3133C2.45391 11.2711 2.28516 11.25 2.10938 11.25C0.945703 11.25 0 12.1957 0 13.3594C0 14.523 0.945703 15.4688 2.10938 15.4688C2.33086 15.4688 2.53125 15.6691 2.53125 15.8906C2.53125 17.0543 3.47695 18 4.64062 18C5.8043 18 6.75 17.0543 6.75 15.8906C6.75 15.7148 6.72891 15.5461 6.68672 15.3809C6.53906 14.7867 6.50391 14.0766 6.93984 13.6441L7.88203 12.702C8.09297 12.491 8.37773 12.3715 8.67656 12.3715H11.8125C12.034 12.3715 12.2484 12.3609 12.4629 12.3363C12.8813 12.2941 13.0395 11.7914 12.8426 11.4223C12.5437 10.8668 12.375 10.234 12.375 9.55898C12.375 7.38281 14.1363 5.62148 16.3125 5.62148C16.5938 5.62148 16.8645 5.64961 17.1281 5.70586C17.5395 5.79375 17.9754 5.49844 17.9016 5.08711C17.3848 2.19727 14.8535 0 11.8125 0C8.39531 0 5.625 2.77031 5.625 6.1875V9.32344Z" fill="#EF4444"/>
</svg>
