<svg width="19" height="17" viewBox="0 0 19 17" fill="none" xmlns="http://www.w3.org/2000/svg">
<path d="M7.47572 7.25083C8.68669 6.84718 9.99592 6.84718 11.2069 7.25083C11.4234 7.32299 11.5932 7.49284 11.6654 7.70929C12.069 8.92026 12.069 10.2295 11.6654 11.4405C11.5932 11.6569 11.4234 11.8268 11.2069 11.8989C9.99592 12.3026 8.68669 12.3026 7.47572 11.8989C7.25927 11.8268 7.08942 11.6569 7.01726 11.4405C6.61361 10.2295 6.61361 8.92026 7.01726 7.70929C7.08942 7.49284 7.25927 7.32299 7.47572 7.25083Z" fill="white"/>
<path fill-rule="evenodd" clip-rule="evenodd" d="M4.09837 2.57488C2.46643 2.57488 1.03221 3.65671 0.583884 5.22586L0.544881 5.36237C-0.23917 8.10655 -0.175786 11.0236 0.726725 13.7311C1.10951 14.8795 2.05244 15.7527 3.22676 16.0462L3.48464 16.1107C7.32991 17.072 11.3527 17.072 15.198 16.1107L15.4559 16.0462C16.6302 15.7527 17.5731 14.8795 17.9559 13.7311C18.8584 11.0236 18.9218 8.10655 18.1377 5.36237L18.0987 5.22586C17.6504 3.65671 16.2162 2.57488 14.5842 2.57488H14.0214C13.6046 2.57488 13.2236 2.3394 13.0372 1.96663L12.5839 1.06016C12.4286 0.749439 12.1562 0.513162 11.8266 0.403306C10.2134 -0.134435 8.46925 -0.134435 6.85603 0.403306C6.52646 0.513162 6.25403 0.749439 6.09867 1.06016L5.64543 1.96663C5.45905 2.3394 5.07804 2.57488 4.66126 2.57488H4.09837ZM11.8394 5.35347C10.2178 4.81297 8.46477 4.81297 6.84326 5.35347C6.0296 5.62469 5.39112 6.26317 5.1199 7.07683C4.57939 8.69834 4.57939 10.4514 5.1199 12.0729C5.39112 12.8866 6.0296 13.5251 6.84326 13.7963C8.46477 14.3368 10.2178 14.3368 11.8394 13.7963C12.653 13.5251 13.2915 12.8866 13.5627 12.0729C14.1032 10.4514 14.1032 8.69834 13.5627 7.07683C13.2915 6.26317 12.653 5.62469 11.8394 5.35347Z" fill="white"/>
</svg>
