<svg width="24" height="24" viewBox="0 0 24 24" fill="none" xmlns="http://www.w3.org/2000/svg">
<path fill-rule="evenodd" clip-rule="evenodd" d="M6.68553 3.47848C10.1592 2.48601 13.8413 2.48601 17.315 3.47848C18.8661 3.92166 20.0786 5.13415 20.5218 6.68528C21.5142 10.1589 21.5142 13.8411 20.5218 17.3147C20.0786 18.8659 18.8661 20.0784 17.315 20.5215C13.8413 21.514 10.1592 21.514 6.68553 20.5215C5.13439 20.0784 3.92191 18.8659 3.47873 17.3147C2.48626 13.8411 2.48626 10.1589 3.47873 6.68528C3.92191 5.13415 5.13439 3.92166 6.68553 3.47848ZM13.0726 15.2192L17.814 8.58124L16.1865 7.41876L11.4451 14.0567C11.3701 14.1618 11.2705 14.2468 11.1551 14.3045L11.053 14.3556C10.3903 14.6869 9.6102 14.6869 8.94746 14.3556C8.81643 14.2901 8.71019 14.1838 8.64467 14.0528L7.89467 12.5528L6.10582 13.4472L6.85582 14.9472C7.11486 15.4653 7.53495 15.8854 8.05303 16.1444C9.27883 16.7573 10.7217 16.7573 11.9475 16.1444L12.0495 16.0934C12.4567 15.8898 12.8079 15.5897 13.0726 15.2192Z" fill="#F97316"/>
</svg>
