<svg width="30" height="30" viewBox="0 0 30 30" fill="none" xmlns="http://www.w3.org/2000/svg">
<rect width="30" height="30" rx="15" fill="#404040"/>
<g clip-path="url(#clip0_89_5918)">
<path d="M22.0001 11.2354V18.671C22.0001 19.45 21.5002 20.229 20.7145 20.5122L17.1432 21.8577C16.929 21.9285 16.7147 21.9994 16.429 21.9994C16.0718 21.9994 15.6433 21.8577 15.2862 21.6453C15.1433 21.5036 14.9291 21.362 14.8576 21.2204H12.1435C11.0721 21.2204 10.1436 20.3706 10.1436 19.2376V18.5294C10.1436 18.2461 10.3578 17.9628 10.715 17.9628C11.0721 17.9628 11.2864 18.1753 11.2864 18.5294V19.2376C11.2864 19.7333 11.7149 20.0873 12.1435 20.0873H14.5005V9.88989H12.1435C11.6435 9.88989 11.2864 10.244 11.2864 10.7397V11.4478C11.2864 11.7311 11.0721 12.0144 10.715 12.0144C10.3578 12.0144 10.1436 11.7311 10.1436 11.4478V10.7397C10.1436 9.67745 11.0007 8.75684 12.1435 8.75684H14.8576C15.0005 8.61521 15.1433 8.47358 15.2862 8.33195C15.8576 7.97787 16.5004 7.90705 17.1432 8.1195L20.7145 9.465C21.4288 9.67745 22.0001 10.4564 22.0001 11.2354Z" fill="white"/>
<path d="M9.9999 16.9716C9.85706 16.9716 9.71421 16.9008 9.64278 16.83L8.21427 15.4137C8.14285 15.3428 8.14285 15.2721 8.07142 15.2721C8.07142 15.2012 8 15.1304 8 15.0596C8 14.9888 8 14.918 8.07142 14.8472C8.07142 14.7764 8.14285 14.7055 8.21427 14.7055L9.64278 13.2892C9.85706 13.0768 10.2142 13.0768 10.4285 13.2892C10.6427 13.5017 10.6427 13.8558 10.4285 14.0682L9.92848 14.5639H12.8569C13.1426 14.5639 13.4283 14.7764 13.4283 15.1304C13.4283 15.4845 13.1426 15.5553 12.8569 15.5553H9.85706L10.357 16.051C10.5713 16.2634 10.5713 16.6175 10.357 16.83C10.2856 16.9008 10.1428 16.9716 9.9999 16.9716Z" fill="white"/>
</g>
<defs>
<clipPath id="clip0_89_5918">
<rect width="14" height="14" fill="white" transform="translate(8 8)"/>
</clipPath>
</defs>
</svg>
