<svg width="30" height="30" viewBox="0 0 30 30" fill="none" xmlns="http://www.w3.org/2000/svg">
<rect width="30" height="30" rx="15" fill="#4FAF5A"/>
<g clip-path="url(#clip0_89_5880)">
<path d="M9.63112 17.994L8.96344 18.824L11.202 21.0626L12.0328 20.3833C12.4421 20.6096 12.8735 20.7875 13.3209 20.9145L13.4354 22H15.4102V20.332H17.1536C17.3236 20.8084 17.7745 21.1523 18.3086 21.1523C18.9871 21.1523 19.5391 20.6003 19.5391 19.9219C19.5391 19.2434 18.9871 18.6914 18.3086 18.6914C17.7745 18.6914 17.3236 19.0353 17.1536 19.5117H15.4102V18.6914H15C12.9645 18.6914 11.3086 17.0355 11.3086 15C11.3086 12.9645 12.9645 11.3086 15 11.3086H15.4102V10.4883H17.1536C17.3236 10.9647 17.7745 11.3086 18.3086 11.3086C18.9871 11.3086 19.5391 10.7566 19.5391 10.0781C19.5391 9.39966 18.9871 8.84766 18.3086 8.84766C17.7745 8.84766 17.3236 9.19159 17.1536 9.66797H15.4102V8H13.3983L13.2917 9.09439C12.8443 9.22331 12.4137 9.40318 12.006 9.63112L11.176 8.96344L8.93663 11.202L9.6167 12.0328C9.39047 12.4421 9.21263 12.8735 9.08563 13.3209L8 13.4354V16.6017L9.09439 16.7083C9.22331 17.1558 9.40318 17.5863 9.63112 17.994Z" fill="white"/>
<path d="M20.7695 13.7695C20.2355 13.7695 19.7845 14.1135 19.6146 14.5898H14.1797V15.4102H19.6146C19.7845 15.8865 20.2355 16.2305 20.7695 16.2305C21.448 16.2305 22 15.6785 22 15C22 14.3215 21.448 13.7695 20.7695 13.7695Z" fill="white"/>
<path d="M20.864 10.4918C20.143 10.4378 19.5391 11.009 19.5391 11.7188C19.5391 11.7698 19.548 11.8184 19.5541 11.8679L18.2116 12.5391H14.6606C13.2624 12.5391 12.1289 13.6726 12.1289 15.0707C12.1289 16.3908 13.1991 17.461 14.5191 17.461H18.2116L19.5541 18.1322C19.548 18.1816 19.5391 18.2302 19.5391 18.2813C19.5391 18.991 20.143 19.5623 20.864 19.5082C21.4656 19.463 21.9513 18.9774 21.9965 18.3757C22.0505 17.6547 21.4793 17.0508 20.7695 17.0508C20.4386 17.0508 20.1391 17.1836 19.9178 17.3968L18.4056 16.6406H14.5898C13.6838 16.6406 12.9492 15.9061 12.9492 15C12.9492 14.0939 13.6838 13.3594 14.5898 13.3594H18.4056L19.9178 12.6033C20.1391 12.8165 20.4386 12.9492 20.7695 12.9492C21.4793 12.9492 22.0505 12.3453 21.9965 11.6243C21.9513 11.0227 21.4656 10.537 20.864 10.4918Z" fill="white"/>
</g>
<defs>
<clipPath id="clip0_89_5880">
<rect width="14" height="14" fill="white" transform="translate(8 8)"/>
</clipPath>
</defs>
</svg>
