<svg width="30" height="30" viewBox="0 0 30 30" fill="none" xmlns="http://www.w3.org/2000/svg">
<rect width="30" height="30" rx="15" fill="#4FAF5A"/>
<g clip-path="url(#clip0_89_5875)">
<path d="M8.82558 14.384C9.10558 11.724 11.0656 9.56802 13.6136 8.99402L13.1796 8.63002C13.0396 8.50402 13.0256 8.28002 13.1516 8.14002C13.2636 8.01402 13.4596 7.98602 13.6136 8.08402L14.6356 8.89602C14.7056 8.95202 14.7476 9.03602 14.7616 9.13402C14.7756 9.23202 14.7476 9.33002 14.6916 9.40002L13.8796 10.422C13.8096 10.506 13.7116 10.562 13.5996 10.548C13.4036 10.548 13.2496 10.394 13.2496 10.198C13.2496 10.114 13.2776 10.03 13.3196 9.97402L13.5156 9.73602C11.3736 10.338 9.77758 12.186 9.52558 14.454C9.51158 14.636 9.35758 14.762 9.17558 14.762H9.14758C8.95158 14.748 8.81158 14.58 8.82558 14.384ZM14.4116 20.474C12.1296 20.236 10.2816 18.612 9.69358 16.456L9.97358 16.68C10.1276 16.806 10.3516 16.778 10.4636 16.624C10.5896 16.47 10.5616 16.246 10.4076 16.134L9.38558 15.308C9.31558 15.252 9.21758 15.224 9.13358 15.238C9.03558 15.252 8.95158 15.294 8.89558 15.364L8.08358 16.386C8.02758 16.442 8.01358 16.526 8.01358 16.61C7.99958 16.806 8.15358 16.96 8.34958 16.96C8.46158 16.96 8.55958 16.918 8.62958 16.834L8.96558 16.414C9.55358 18.962 11.6956 20.894 14.3556 21.174H14.3836C14.5796 21.188 14.7476 21.034 14.7476 20.838C14.7616 20.656 14.6076 20.488 14.4116 20.474ZM20.8236 15.28C20.6276 15.266 20.4596 15.406 20.4316 15.588C20.1936 17.856 18.5836 19.704 16.4416 20.306L16.6796 20.012C16.8056 19.858 16.7776 19.634 16.6236 19.522C16.4696 19.396 16.2456 19.424 16.1336 19.578L15.3636 20.544C15.2656 20.614 15.2096 20.726 15.2236 20.838C15.2236 20.978 15.3216 21.09 15.4336 21.146L16.3856 21.916C16.4416 21.958 16.5256 21.986 16.6096 21.986C16.7216 21.986 16.8196 21.944 16.8756 21.86C17.0016 21.706 16.9736 21.482 16.8196 21.37L16.4136 21.048C18.9336 20.446 20.8516 18.304 21.1316 15.672C21.1596 15.462 21.0196 15.294 20.8236 15.28ZM21.8736 13.25C21.7196 13.124 21.4956 13.152 21.3836 13.306L21.0336 13.74C20.4736 11.15 18.3176 9.16202 15.6296 8.86802C15.4336 8.84002 15.2516 8.98002 15.2376 9.17602C15.2236 9.37202 15.3636 9.54002 15.5456 9.56802C17.8556 9.82002 19.7316 11.472 20.2916 13.67L20.0256 13.446C19.8716 13.32 19.6476 13.348 19.5356 13.502C19.4236 13.656 19.4376 13.88 19.5916 13.992L20.6136 14.804C20.6696 14.846 20.7536 14.874 20.8376 14.874C20.9496 14.874 21.0476 14.832 21.1176 14.748L21.9296 13.726C22.0416 13.586 22.0276 13.362 21.8736 13.25ZM14.9996 18.654C12.9696 18.654 11.3176 17.002 11.3176 14.972C11.3176 12.942 12.9696 11.29 14.9996 11.29C17.0296 11.29 18.6816 12.942 18.6816 14.972C18.6816 17.016 17.0296 18.654 14.9996 18.654ZM16.1616 15.784C16.1616 15.14 15.6436 14.622 14.9996 14.622C14.7476 14.622 14.5376 14.412 14.5376 14.16C14.5376 13.908 14.7476 13.698 14.9996 13.698C15.2516 13.698 15.4616 13.908 15.4616 14.16C15.4616 14.356 15.6156 14.51 15.8116 14.51C16.0076 14.51 16.1616 14.356 16.1616 14.16C16.1616 13.642 15.8396 13.194 15.3496 13.04V12.984C15.3496 12.788 15.1956 12.634 14.9996 12.634C14.8036 12.634 14.6496 12.788 14.6496 12.984V13.04C14.1596 13.194 13.8236 13.656 13.8236 14.174C13.8376 14.818 14.3556 15.336 14.9996 15.322C15.2376 15.336 15.4196 15.518 15.4336 15.756C15.4476 16.008 15.2516 16.232 14.9996 16.246C14.7476 16.246 14.5376 16.036 14.5376 15.784C14.5376 15.588 14.3836 15.434 14.1876 15.434C13.9916 15.434 13.8376 15.588 13.8376 15.784C13.8376 16.288 14.1736 16.736 14.6496 16.89V16.96C14.6496 17.156 14.8036 17.31 14.9996 17.31C15.1956 17.31 15.3496 17.156 15.3496 16.96V16.89C15.8396 16.736 16.1616 16.288 16.1616 15.784Z" fill="white"/>
</g>
<defs>
<clipPath id="clip0_89_5875">
<rect width="14" height="14" fill="white" transform="translate(8 8)"/>
</clipPath>
</defs>
</svg>
