<svg width="14" height="15" viewBox="0 0 14 15" fill="none" xmlns="http://www.w3.org/2000/svg">
<path d="M8.19984 8.05125C8.55234 8.405 8.74672 8.87438 8.74672 9.37438C8.74672 9.87438 8.55109 10.3463 8.19672 10.7C7.49047 11.4094 6.25484 11.4081 5.54609 10.7C5.19234 10.3463 4.99672 9.87562 4.99672 9.37438C4.99672 8.87313 5.19172 8.4025 5.53922 8.05562L6.65672 6.97125C6.71734 6.91187 6.79609 6.8825 6.87422 6.8825C6.95234 6.8825 7.03047 6.9125 7.09109 6.97125L8.19984 8.05125ZM11.733 12.9862C10.4342 14.2844 8.70734 15 6.87172 15C5.03609 15 3.30922 14.2844 2.01047 12.9862C-0.670156 10.305 -0.670156 5.94375 2.01047 3.26313L4.50547 0.958125C5.13234 0.345 5.97672 0 6.87172 0C7.76672 0 8.61109 0.345 9.25109 0.970625L11.7155 3.24688C14.4136 5.94438 14.4136 10.3056 11.733 12.9862ZM9.99672 9.375C9.99672 8.54 9.67109 7.755 9.08109 7.16562L9.07547 7.16L7.96297 6.07625C7.35359 5.48375 6.39734 5.4825 5.78609 6.075L4.66234 7.16562C4.07234 7.755 3.74672 8.54 3.74672 9.375C3.74672 10.21 4.07234 10.995 4.66234 11.5844C5.25234 12.1744 6.03734 12.5 6.87172 12.5C7.70609 12.5 8.49172 12.1744 9.08109 11.5844C9.67109 10.995 9.99672 10.21 9.99672 9.375Z" fill="#E8712E"/>
</svg>
