<svg width="14" height="14" viewBox="0 0 14 14" fill="none" xmlns="http://www.w3.org/2000/svg">
<path d="M13.2187 4.96516C13.0366 4.35965 12.4903 3.87525 11.8833 3.81471L9.33379 3.45138L8.18045 1.02936C7.87694 0.363302 7.33058 0 6.66289 0C5.99516 0 5.44885 0.363302 5.14534 0.96881L3.992 3.39085L1.44252 3.81471C0.835502 3.93578 0.289187 4.35965 0.10708 4.96516C-0.135725 5.6312 0.0463774 6.29725 0.531996 6.78169L2.41375 8.65876L1.98884 11.323C1.86744 11.989 2.17094 12.6551 2.71726 13.0184C3.02077 13.2001 3.32427 13.3212 3.68849 13.3212C3.992 13.3212 4.2348 13.2606 4.4776 13.1395L6.78427 11.8679L9.09094 13.1395C9.6373 13.4422 10.305 13.3817 10.8513 13.0184C11.3976 12.6551 11.7011 11.989 11.5797 11.323L11.1548 8.65876L13.0366 6.78169C13.2794 6.29725 13.4615 5.57067 13.2187 4.96516Z" fill="#F5AE42"/>
</svg>
