<svg width="15" height="15" viewBox="0 0 15 15" fill="none" xmlns="http://www.w3.org/2000/svg">
<path fill-rule="evenodd" clip-rule="evenodd" d="M15 7.5C15 11.6419 11.6419 15 7.5 15C3.35813 15 0 11.6419 0 7.5C0 3.35813 3.35813 0 7.5 0C11.6419 0 15 3.35813 15 7.5ZM6.6625 7.62563C6.65409 7.58428 6.6499 7.54219 6.65 7.5V3.125C6.65 2.95924 6.71585 2.80027 6.83306 2.68306C6.95027 2.56585 7.10924 2.5 7.275 2.5C7.44076 2.5 7.59973 2.56585 7.71694 2.68306C7.83415 2.80027 7.9 2.95924 7.9 3.125V7.14062L10.835 8.835C10.9774 8.91847 11.081 9.05487 11.1231 9.21443C11.1653 9.37399 11.1427 9.54375 11.0602 9.68668C10.9776 9.82961 10.8419 9.9341 10.6827 9.97734C10.5234 10.0206 10.3535 9.99907 10.21 9.9175L6.9625 8.0425C6.88577 7.99829 6.81933 7.93825 6.7676 7.86637C6.71588 7.79449 6.68005 7.71243 6.6625 7.62563Z" fill="#24B5D4"/>
</svg>
