<svg width="122" height="122" viewBox="0 0 122 122" fill="none" xmlns="http://www.w3.org/2000/svg">
<rect width="122" height="122" rx="61" fill="#D9D9D9"/>
<path d="M83.1872 45.1737V38.8133H76.8268V34.3758H83.1872V27.9414H87.6247V34.3758H94.059V38.8133H87.6247V45.1737H83.1872ZM58.0413 76.7539C61.5913 76.7539 64.5744 75.5459 66.9903 73.13C69.4062 70.714 70.6143 67.731 70.6143 64.181C70.6143 60.5817 69.4062 57.5864 66.9903 55.1951C64.5744 52.8037 61.5913 51.6081 58.0413 51.6081C54.4421 51.6081 51.4468 52.8037 49.0554 55.1951C46.664 57.5864 45.4684 60.5817 45.4684 64.181C45.4684 67.731 46.664 70.714 49.0554 73.13C51.4468 75.5459 54.4421 76.7539 58.0413 76.7539ZM58.0413 72.3164C55.6747 72.3164 53.7271 71.5399 52.1986 69.9867C50.6702 68.4336 49.9059 66.4984 49.9059 64.181C49.9059 61.8143 50.6702 59.8667 52.1986 58.3383C53.7271 56.8099 55.6747 56.0456 58.0413 56.0456C60.3588 56.0456 62.2939 56.8099 63.8471 58.3383C65.4002 59.8667 66.1768 61.8143 66.1768 64.181C66.1768 66.4984 65.4002 68.4336 63.8471 69.9867C62.2939 71.5399 60.3588 72.3164 58.0413 72.3164ZM32.8955 87.6258C31.7122 87.6258 30.6768 87.182 29.7893 86.2945C28.9018 85.407 28.458 84.3716 28.458 83.1883V45.2477C28.458 44.1136 28.9018 43.0906 29.7893 42.1784C30.6768 41.2662 31.7122 40.8102 32.8955 40.8102H43.7674L49.1663 34.3758H72.3893V43.2508H78.7497V49.6112H87.6247V83.1883C87.6247 84.3716 87.1686 85.407 86.2564 86.2945C85.3442 87.182 84.3213 87.6258 83.1872 87.6258H32.8955Z" fill="white"/>
</svg>
