<svg width="16" height="16" viewBox="0 0 16 16" fill="none" xmlns="http://www.w3.org/2000/svg">
<path d="M8.00027 14.837C4.22421 14.837 1.16309 11.7758 1.16309 7.99979C1.16309 4.22372 4.22421 1.1626 8.00027 1.1626C11.7763 1.1626 14.8375 4.22372 14.8375 7.99979C14.8375 11.7758 11.7763 14.837 8.00027 14.837Z" stroke="#4FAF5A" stroke-linecap="round" stroke-linejoin="round"/>
<path d="M11.0764 9.70947C11.0764 9.70947 10.0508 11.0769 7.9996 11.0769C5.94841 11.0769 4.92285 9.70947 4.92285 9.70947" stroke="#4FAF5A" stroke-linecap="round" stroke-linejoin="round"/>
<path d="M10.3926 5.94882C10.2038 5.94882 10.0508 5.79576 10.0508 5.60701C10.0508 5.41826 10.2038 5.26514 10.3926 5.26514C10.5813 5.26514 10.7345 5.4182 10.7345 5.60701C10.7345 5.79582 10.5814 5.94882 10.3926 5.94882Z" fill="#4FAF5A" stroke="#4FAF5A" stroke-linecap="round" stroke-linejoin="round"/>
<path d="M5.60652 5.94882C5.41771 5.94882 5.26465 5.79576 5.26465 5.60701C5.26465 5.41826 5.41771 5.26514 5.60652 5.26514C5.79534 5.26514 5.94834 5.4182 5.94834 5.60701C5.94834 5.79582 5.79527 5.94882 5.60652 5.94882Z" fill="#4FAF5A" stroke="#4FAF5A" stroke-linecap="round" stroke-linejoin="round"/>
</svg>
