<svg width="19" height="19" viewBox="0 0 19 19" fill="none" xmlns="http://www.w3.org/2000/svg">
<path fill-rule="evenodd" clip-rule="evenodd" d="M3.95115 0.744353C7.4248 -0.248118 11.107 -0.248118 14.5806 0.744353C16.1317 1.18753 17.3442 2.40002 17.7874 3.95115C18.7799 7.42479 18.7799 11.1069 17.7874 14.5806C17.3442 16.1317 16.1317 17.3442 14.5806 17.7874C11.1069 18.7799 7.4248 18.7799 3.95116 17.7874C2.40002 17.3442 1.18753 16.1317 0.744352 14.5806C-0.248116 11.1069 -0.248119 7.42479 0.744353 3.95115C1.18753 2.40002 2.40002 1.18753 3.95115 0.744353ZM4.0944 4.52333C4.20426 4.35854 4.37507 4.24415 4.56927 4.20531L5.12384 4.0944C7.85818 3.54753 10.6738 3.54753 13.4081 4.0944L13.9627 4.20531C14.1569 4.24415 14.3277 4.35854 14.4375 4.52333C14.9392 5.27581 14.9392 6.25613 14.4375 7.00861C14.3277 7.17339 14.1569 7.28779 13.9627 7.32663L13.4081 7.43754C12.3695 7.64527 11.3191 7.77409 10.266 7.82401V6.26597H8.26597V7.82401C7.21281 7.77409 6.16246 7.64527 5.12384 7.43754L4.56927 7.32663C4.37507 7.28779 4.20426 7.17339 4.0944 7.00861C3.59274 6.25613 3.59274 5.27581 4.0944 4.52333Z" fill="#2563EB"/>
</svg>
