<svg width="25" height="23" viewBox="0 0 25 23" fill="none" xmlns="http://www.w3.org/2000/svg">
<path d="M9.96762 9.66778C11.5823 9.12957 13.3279 9.12957 14.9425 9.66778C15.2311 9.76398 15.4576 9.99045 15.5538 10.2791C16.092 11.8937 16.092 13.6393 15.5538 15.254C15.4576 15.5426 15.2311 15.769 14.9425 15.8652C13.3279 16.4034 11.5823 16.4034 9.96762 15.8652C9.67902 15.769 9.45255 15.5426 9.35635 15.254C8.81814 13.6393 8.81814 11.8937 9.35635 10.2791C9.45255 9.99045 9.67902 9.76398 9.96762 9.66778Z" fill="#111214"/>
<path fill-rule="evenodd" clip-rule="evenodd" d="M5.46449 3.43317C3.28857 3.43317 1.37628 4.87562 0.778512 6.96782L0.726508 7.14983C-0.318893 10.8087 -0.234381 14.6981 0.968967 18.3082C1.47934 19.8393 2.73659 21.0036 4.30235 21.395L4.64618 21.4809C9.77322 22.7627 15.1369 22.7627 20.264 21.481L20.6078 21.395C22.1736 21.0036 23.4308 19.8393 23.9412 18.3082C25.1445 14.6981 25.229 10.8087 24.1836 7.14983L24.1316 6.96781C23.5339 4.87561 21.6216 3.43317 19.4457 3.43317H18.6951C18.1394 3.43317 17.6314 3.1192 17.3829 2.62217L16.7786 1.41355C16.5715 0.999253 16.2082 0.684216 15.7688 0.537741C13.6178 -0.179247 11.2923 -0.179247 9.14137 0.537741C8.70194 0.684216 8.3387 0.999253 8.13156 1.41355L7.52725 2.62217C7.27873 3.1192 6.77072 3.43317 6.21501 3.43317H5.46449ZM15.7858 7.13796C13.6238 6.41729 11.2864 6.41729 9.12435 7.13796C8.03947 7.49959 7.18816 8.35089 6.82653 9.43578C6.10586 11.5978 6.10586 13.9352 6.82653 16.0972C7.18816 17.1821 8.03947 18.0334 9.12435 18.3951C11.2864 19.1157 13.6238 19.1157 15.7858 18.3951C16.8707 18.0334 17.722 17.1821 18.0836 16.0972C18.8043 13.9352 18.8043 11.5978 18.0836 9.43578C17.722 8.35089 16.8707 7.49959 15.7858 7.13796Z" fill="#111214"/>
</svg>
