<svg width="19" height="16" viewBox="0 0 19 16" fill="none" xmlns="http://www.w3.org/2000/svg">
<path d="M7.5909 1.24276L9.10945 2.7613C9.28572 2.93758 9.57153 2.93758 9.7478 2.7613L11.2663 1.24276C12.5576 -0.0485327 14.5303 -0.36866 16.1637 0.448025C16.9848 0.858559 17.6505 1.52432 18.0611 2.34539L18.265 2.75314C19.003 4.22919 19.0537 5.9553 18.4036 7.47214L18.3597 7.57468C17.1066 10.4986 14.9344 12.9343 12.1724 14.5126L11.2087 15.0633C10.1057 15.6936 8.75159 15.6936 7.64859 15.0633L6.6849 14.5126C3.92288 12.9343 1.75069 10.4986 0.497567 7.57468L0.453621 7.47214C-0.196452 5.9553 -0.145728 4.22919 0.592295 2.75314L0.79617 2.34539C1.2067 1.52432 1.87247 0.858558 2.69354 0.448025C4.32691 -0.36866 6.29961 -0.048534 7.5909 1.24276Z" fill="#EF4444"/>
</svg>
