<svg width="16" height="17" viewBox="0 0 16 17" fill="none" xmlns="http://www.w3.org/2000/svg">
<path d="M0.338749 7.5756C0.115403 8.07813 0 8.62194 0 9.17186V12.3509C0 14.0573 1.27065 15.4966 2.96387 15.7083C3.30886 15.7514 3.65427 15.7901 4 15.8243V11.6623C4 10.4409 4.78159 9.3565 5.94036 8.97025C7.27729 8.5246 8.72271 8.5246 10.0596 8.97025C11.2184 9.3565 12 10.4409 12 11.6623V15.8243C12.3457 15.7901 12.6911 15.7514 13.0361 15.7083C14.7294 15.4966 16 14.0573 16 12.3509V9.17186C16 8.62194 15.8846 8.07813 15.6613 7.5756C14.5719 5.12453 12.8735 2.99293 10.7277 1.38358L9.5893 0.529768C8.64749 -0.176589 7.35251 -0.176589 6.4107 0.529768L5.27228 1.38358C3.12648 2.99293 1.42812 5.12453 0.338749 7.5756Z" fill="#111214"/>
<path d="M10 15.9725V11.6623C10 11.3018 9.76927 10.9816 9.42719 10.8676C8.50078 10.5588 7.49922 10.5588 6.57281 10.8676C6.23073 10.9816 6 11.3018 6 11.6623V15.9725C7.33252 16.0382 8.66748 16.0382 10 15.9725Z" fill="#111214"/>
</svg>
