<svg width="272" height="392" viewBox="0 0 272 392" fill="none" xmlns="http://www.w3.org/2000/svg">
<path d="M80 4.00006C65.1205 4.00006 57.6807 4.00006 51.5767 5.63562C35.0123 10.074 22.074 23.0123 17.6356 39.5767C16 45.6807 16 53.1205 16 68.0001" stroke="white" stroke-width="8"/>
<path d="M192 4.00006C206.88 4.00006 214.319 4.00006 220.423 5.63562C236.988 10.074 249.926 23.0123 254.364 39.5767C256 45.6807 256 53.1205 256 68.0001" stroke="white" stroke-width="8"/>
<path d="M80 388C65.1205 388 57.6807 388 51.5767 386.365C35.0123 381.926 22.074 368.988 17.6356 352.423C16 346.319 16 338.88 16 324" stroke="white" stroke-width="8"/>
<path d="M192 388C206.88 388 214.319 388 220.423 386.365C236.988 381.926 249.926 368.988 254.364 352.423C256 346.319 256 338.88 256 324" stroke="white" stroke-width="8"/>
<path d="M0 156H272" stroke="white" stroke-width="8"/>
<rect opacity="0.64" x="15" y="158" width="241" height="125" fill="url(#paint0_linear_89_5389)"/>
<defs>
<linearGradient id="paint0_linear_89_5389" x1="135.5" y1="158" x2="135.5" y2="283" gradientUnits="userSpaceOnUse">
<stop stop-color="white"/>
<stop offset="1" stop-color="white" stop-opacity="0"/>
</linearGradient>
</defs>
</svg>
