<svg width="18" height="20" viewBox="0 0 18 20" fill="none" xmlns="http://www.w3.org/2000/svg">
<path d="M7.6 8.225C7.2 9.025 7.2 9.925 7.6 10.725C8.4 11.125 9.3 11.125 10.1 10.725C10.5 9.925 10.5 9.025 10.1 8.225C9.4 7.825 8.4 7.825 7.6 8.225Z" fill="#111214"/>
<path d="M16.8 10.425C16.8 10.125 16.9 9.825 16.9 9.525C16.9 9.225 16.9 8.925 16.8 8.625C16.9 8.525 17.1 8.425 17.2 8.225C17.6 7.825 17.8 7.325 17.8 6.725C17.7 5.325 17 3.925 15.7 3.125C15.2 2.825 14.7 2.725 14.1 2.925C13.9 2.925 13.8 3.025 13.6 3.125C13.1 2.725 12.6 2.425 12 2.225C12 2.025 11.9 1.925 11.9 1.725C11.8 1.225 11.4 0.725 10.9 0.525C9.6 -0.175 8.1 -0.175 6.8 0.525C6.3 0.625 6 1.125 5.8 1.625C5.8 1.825 5.7 1.925 5.7 2.125C5.2 2.425 4.6 2.725 4.2 3.025C4 3.025 3.8 2.925 3.7 2.925C3.1 2.725 2.5 2.825 2.1 3.125C0.9 3.925 0.1 5.325 0 6.725C0 7.325 0.2 7.825 0.6 8.225C0.7 8.325 0.8 8.425 1 8.625C1 8.925 0.9 9.225 0.9 9.525C0.9 9.825 0.9 10.125 1 10.425C0.9 10.525 0.7 10.625 0.6 10.825C0.2 11.125 0 11.725 0 12.225C0.1 13.725 0.9 15.025 2.1 15.825C2.6 16.125 3.1 16.225 3.7 16.025C3.8 16.025 4 15.925 4.2 15.925C4.7 16.325 5.2 16.625 5.8 16.825C5.8 17.025 5.9 17.125 5.9 17.325C6 17.825 6.4 18.325 6.9 18.525C8.2 19.225 9.7 19.225 11 18.525C11.5 18.225 11.9 17.825 12 17.325C12 17.125 12.1 17.025 12.1 16.825C12.7 16.625 13.2 16.325 13.7 15.925C13.9 16.025 14 16.025 14.2 16.125C14.7 16.325 15.3 16.225 15.8 15.925C17 15.125 17.8 13.825 17.9 12.325C17.9 11.725 17.7 11.225 17.3 10.825C17.1 10.625 17 10.525 16.8 10.425ZM11.9 11.625C11.7 12.025 11.4 12.325 11 12.525C10.3 12.825 9.6 13.025 8.8 13.025C8 13.025 7.3 12.825 6.6 12.525C6.2 12.325 5.9 12.025 5.7 11.625C5 10.225 5 8.625 5.7 7.325C6.1 6.925 6.4 6.625 6.7 6.425C8.1 5.725 9.7 5.725 11 6.425C11.4 6.625 11.7 6.925 11.9 7.325C12.6 8.725 12.6 10.325 11.9 11.625Z" fill="#111214"/>
</svg>
