<svg width="13" height="12" viewBox="0 0 13 12" fill="none" xmlns="http://www.w3.org/2000/svg">
<path d="M0 4.0625C0 3.16621 0.728711 2.4375 1.625 2.4375H1.66562C1.85352 1.51074 2.67363 0.8125 3.65625 0.8125C4.03711 0.8125 4.39258 0.916601 4.69473 1.09687C5.03242 0.446875 5.71543 0 6.5 0C7.28457 0 7.96758 0.446875 8.30527 1.09687C8.60742 0.916601 8.96289 0.8125 9.34375 0.8125C10.3264 0.8125 11.1465 1.51074 11.3344 2.4375H11.375C12.2713 2.4375 13 3.16621 13 4.0625C13 4.35957 12.9213 4.63633 12.7816 4.875H0.218359C0.0787109 4.63633 0 4.35957 0 4.0625ZM0 6.3832C0 5.9998 0.312305 5.6875 0.695703 5.6875H12.3018C12.6852 5.6875 12.9975 5.9998 12.9975 6.3832C12.9975 8.17324 11.8701 9.70176 10.2883 10.2959L10.2451 10.6641C10.1943 11.0703 9.84902 11.375 9.4377 11.375H3.55977C3.15098 11.375 2.80313 11.0703 2.75234 10.6641L2.70664 10.2984C1.12734 9.70176 0 8.17324 0 6.3832Z" fill="white"/>
</svg>
