<svg width="13" height="13" viewBox="0 0 13 13" fill="none" xmlns="http://www.w3.org/2000/svg">
<g clip-path="url(#clip0_192_921)">
<path d="M4.0625 8.53125V1.21875L4.875 1.625L5.6875 1.21875L6.49848 1.625L7.32037 1.21875L8.125 1.625L8.93217 1.21875L9.74289 1.625L10.5625 1.21875L11.3753 1.625L12.1875 1.21875V6.90625" stroke="white" stroke-width="0.9375" stroke-linejoin="round"/>
<path d="M12.1875 6.90625V9.75C12.1875 10.2887 11.9735 10.8054 11.5926 11.1863C11.2116 11.5672 10.695 11.7812 10.1563 11.7812M10.1563 11.7812C9.61755 11.7812 9.10089 11.5672 8.71996 11.1863C8.33902 10.8054 8.12502 10.2887 8.12502 9.75V8.53125H1.21877C1.16528 8.53078 1.11224 8.54096 1.06274 8.56121C1.01324 8.58146 0.968265 8.61136 0.930447 8.64918C0.892628 8.687 0.862722 8.73197 0.842474 8.78148C0.822226 8.83098 0.812042 8.88402 0.812516 8.9375C0.812516 10.5625 0.983649 11.7812 2.84377 11.7812H10.1563Z" stroke="white" stroke-width="0.9375" stroke-linejoin="round"/>
<path d="M5.6875 3.65625H10.5625M7.3125 5.6875H10.5625" stroke="white" stroke-width="0.9375" stroke-linecap="round" stroke-linejoin="round"/>
</g>
<defs>
<clipPath id="clip0_192_921">
<rect width="13" height="13" fill="white"/>
</clipPath>
</defs>
</svg>
