<svg width="22" height="22" viewBox="0 0 22 22" fill="none" xmlns="http://www.w3.org/2000/svg">
<path d="M10.8625 10.8626C11.2597 10.3737 11.5538 9.86955 11.7448 9.35012C11.9358 8.83065 12.0312 8.22721 12.0312 7.53971C12.0312 6.85221 11.9358 6.24872 11.7448 5.72929C11.5538 5.20981 11.2597 4.70565 10.8625 4.21678C12.0236 3.95706 13.0434 4.13275 13.9219 4.74387C14.8004 5.35497 15.2396 6.2869 15.2396 7.53971C15.2396 8.79247 14.8004 9.7244 13.9219 10.3355C13.0434 10.9466 12.0236 11.1223 10.8625 10.8626ZM15.4917 18.3335C15.5681 18.1043 15.6406 17.8789 15.7094 17.6574C15.7781 17.4359 15.8125 17.2029 15.8125 16.9585V16.1793C15.8125 15.4001 15.6139 14.6744 15.2167 14.0022C14.8194 13.33 14.1319 12.7647 13.1542 12.3064C15.7972 12.6425 17.6038 13.1314 18.574 13.773C19.5441 14.4147 20.0292 15.2168 20.0292 16.1793V16.9585C20.0292 17.3366 19.8946 17.6602 19.6254 17.9294C19.356 18.1988 19.0323 18.3335 18.6542 18.3335H15.4917ZM18.3333 9.41887H16.7292C16.5344 9.41887 16.3711 9.35255 16.2394 9.21996C16.1076 9.0875 16.0417 8.92323 16.0417 8.72725C16.0417 8.53136 16.1076 8.36851 16.2394 8.23866C16.3711 8.10877 16.5344 8.04387 16.7292 8.04387H18.3333V6.43971C18.3333 6.24491 18.3997 6.08156 18.5322 5.94975C18.6647 5.81802 18.8289 5.75221 19.025 5.75221C19.2208 5.75221 19.3837 5.81802 19.5135 5.94975C19.6434 6.08156 19.7083 6.24491 19.7083 6.43971V8.04387H21.3125C21.5073 8.04387 21.6706 8.11015 21.8025 8.24279C21.9341 8.37525 22 8.53947 22 8.7355C22 8.93134 21.9341 9.09419 21.8025 9.22408C21.6706 9.35393 21.5073 9.41887 21.3125 9.41887H19.7083V11.023C19.7083 11.2178 19.642 11.381 19.5094 11.5128C19.377 11.6446 19.2127 11.7105 19.0167 11.7105C18.8209 11.7105 18.658 11.6446 18.5281 11.5128C18.3983 11.381 18.3333 11.2178 18.3333 11.023V9.41887ZM7.21875 10.9772C6.21042 10.9772 5.38542 10.6564 4.74375 10.0147C4.10208 9.37304 3.78125 8.54804 3.78125 7.53971C3.78125 6.53137 4.10208 5.70637 4.74375 5.06471C5.38542 4.42303 6.21042 4.10219 7.21875 4.10219C8.22708 4.10219 9.05208 4.42303 9.69375 5.06471C10.3354 5.70637 10.6562 6.53137 10.6562 7.53971C10.6562 8.54804 10.3354 9.37304 9.69375 10.0147C9.05208 10.6564 8.22708 10.9772 7.21875 10.9772ZM0 16.9585V16.1793C0 15.6446 0.141319 15.1595 0.423958 14.7241C0.706599 14.2887 1.08472 13.964 1.55833 13.7501C2.65833 13.2612 3.63993 12.9098 4.50313 12.696C5.3663 12.4821 6.27151 12.3751 7.21875 12.3751C8.16599 12.3751 9.06735 12.4821 9.92292 12.696C10.7785 12.9098 11.7562 13.2612 12.8562 13.7501C13.3298 13.964 13.7118 14.2887 14.0021 14.7241C14.2923 15.1595 14.4375 15.6446 14.4375 16.1793V16.9585C14.4375 17.3366 14.3029 17.6602 14.0337 17.9294C13.7643 18.1988 13.4406 18.3335 13.0625 18.3335H1.375C0.996875 18.3335 0.673214 18.1988 0.404021 17.9294C0.134673 17.6602 0 17.3366 0 16.9585ZM7.21875 9.60221C7.81458 9.60221 8.30729 9.40741 8.69688 9.01783C9.08646 8.62825 9.28125 8.13554 9.28125 7.53971C9.28125 6.94387 9.08646 6.45116 8.69688 6.06158C8.30729 5.672 7.81458 5.47721 7.21875 5.47721C6.62292 5.47721 6.13021 5.672 5.74062 6.06158C5.35104 6.45116 5.15625 6.94387 5.15625 7.53971C5.15625 8.13554 5.35104 8.62825 5.74062 9.01783C6.13021 9.40741 6.62292 9.60221 7.21875 9.60221ZM1.375 16.9585H13.0625V16.1793C13.0625 15.9348 13.0014 15.7056 12.8792 15.4918C12.7569 15.2779 12.566 15.1098 12.3063 14.9876C11.2521 14.4987 10.3583 14.1702 9.625 14.0022C8.89167 13.8341 8.08958 13.7501 7.21875 13.7501C6.34792 13.7501 5.54964 13.8341 4.82396 14.0022C4.09827 14.1702 3.19306 14.4987 2.10833 14.9876C1.87917 15.0946 1.69965 15.2588 1.56979 15.4803C1.43993 15.7018 1.375 15.9348 1.375 16.1793V16.9585Z" fill="white"/>
</svg>
