<svg width="14" height="14" viewBox="0 0 14 14" fill="none" xmlns="http://www.w3.org/2000/svg">
<g clip-path="url(#clip0_155_763)">
<path d="M3 13.5H7" stroke="white" stroke-linecap="round" stroke-linejoin="round"/>
<path d="M7.50916 3.93834C7.16361 3.87721 7.16361 3.37279 7.50916 3.31166C8.76104 3.0902 9.75674 2.12059 10.0285 0.858379L10.0493 0.761626C10.1241 0.41435 10.6103 0.412188 10.6881 0.758787L10.7134 0.871541C10.9951 2.1278 11.9911 3.08921 13.2395 3.31006C13.5868 3.3715 13.5868 3.8785 13.2395 3.93994C11.9911 4.16079 10.9951 5.1222 10.7134 6.37846L10.6881 6.49121C10.6103 6.83781 10.1241 6.83565 10.0493 6.48837L10.0285 6.39162C9.75674 5.12941 8.76104 4.1598 7.50916 3.93834Z" stroke="white" stroke-linecap="round" stroke-linejoin="round"/>
<path d="M7.20866 1.07931C6.50881 0.68506 5.71619 0.485325 4.91308 0.50084C4.10998 0.516354 3.32566 0.746553 2.64156 1.16754C1.95746 1.58852 1.39851 2.18495 1.02275 2.89489C0.646986 3.60484 0.4681 4.40242 0.504666 5.20485C0.541231 6.00727 0.791914 6.78528 1.23069 7.45811C1.66946 8.13094 2.28034 8.67405 2.99989 9.03108V10.5311C2.99989 10.6637 3.05257 10.7909 3.14634 10.8846C3.24011 10.9784 3.36728 11.0311 3.49989 11.0311H6.49989C6.6325 11.0311 6.75968 10.9784 6.85345 10.8846C6.94721 10.7909 6.99989 10.6637 6.99989 10.5311V9.03108C7.58256 8.74401 8.09381 8.3347 8.50012 7.83347" stroke="white" stroke-linecap="round" stroke-linejoin="round"/>
</g>
<defs>
<clipPath id="clip0_155_763">
<rect width="14" height="14" fill="white"/>
</clipPath>
</defs>
</svg>
