<svg width="148" height="112" viewBox="0 0 148 112" fill="none" xmlns="http://www.w3.org/2000/svg">
<path fill-rule="evenodd" clip-rule="evenodd" d="M73.0989 109.27C65.3144 107.878 56.8611 97.2348 48.9964 96.4161C36.6128 95.1269 20.2203 113.848 13.8499 103.102C6.91051 91.3962 25.3245 79.6695 22.472 66.3501C19.6753 53.2919 1.81683 52.1429 0.0994352 38.8978C-1.32201 27.9352 12.8728 20.4833 22.4719 15.0771C31.0746 10.2321 41.4017 10.2859 51.262 10.0832C58.7505 9.92919 68.5864 11.6076 75.9212 10.0832C85.8736 8.01466 89.6063 -0.123728 99.7687 0.0015835C109.386 0.120174 124.117 5.00512 124.238 14.6667C124.417 28.9035 112.074 38.2698 117.206 51.5415C123.516 67.8584 137.86 57.3438 146.598 72.4884C152.216 82.2234 139.229 94.5443 130.56 101.67C122.128 108.601 110.471 109.633 99.6691 111.062C90.7566 112.241 81.9493 110.852 73.0989 109.27Z" fill="#E2F7ED"/>
</svg>
