<svg width="87" height="87" viewBox="0 0 87 87" fill="none" xmlns="http://www.w3.org/2000/svg">
<g clip-path="url(#clip0_155_1013)">
<path d="M43.5003 87.0001C61.4863 87.0001 76.0669 83.8648 76.0669 79.9971C76.0669 76.1295 61.4863 72.9941 43.5003 72.9941C25.5142 72.9941 10.9336 76.1295 10.9336 79.9971C10.9336 83.8648 25.5142 87.0001 43.5003 87.0001Z" fill="#0FBB6B"/>
<path d="M76.0662 79.9971C76.0662 76.1296 61.4857 72.9941 43.4995 72.9941C40.5074 72.9941 37.6107 73.0813 34.8584 73.2439L40.9544 82.212C41.1244 82.4623 41.323 82.6766 41.5409 82.857L45.6681 86.9843C62.6428 86.7442 76.0662 83.7081 76.0662 79.9971Z" fill="url(#paint0_linear_155_1013)"/>
<path d="M79.1943 35.6942C79.1943 15.9809 63.2135 0 43.5002 0C23.8726 0 8.00436 15.7015 7.8075 35.3281C7.65892 50.1514 16.5478 62.9145 29.3009 68.4499C31.435 69.3762 33.2605 70.8924 34.5684 72.8165L40.9548 82.2119C42.1761 84.0084 44.8238 84.0084 46.045 82.2119L52.4313 72.8166C53.7351 70.8985 55.5511 69.3806 57.6791 68.4586C70.3378 62.9732 79.1943 50.3689 79.1943 35.6942Z" fill="#4FAF5A"/>
<path fill-rule="evenodd" clip-rule="evenodd" d="M57.2498 12.7402C57.2498 11.7737 56.4663 10.9902 55.4998 10.9902C54.5333 10.9902 53.7498 11.7737 53.7498 12.7402V15.2553C48.9108 15.4583 44.9998 19.2843 44.9998 24.2402C44.9998 25.4911 45.0832 26.9513 45.1751 28.1871C45.3534 30.5824 47.1385 32.5898 49.5996 32.8852C51.1382 33.07 53.1833 33.2402 55.4998 33.2402C57.8162 33.2402 59.8613 33.07 61.3999 32.8852C63.861 32.5898 65.6461 30.5824 65.8244 28.1871C65.9163 26.9513 65.9998 25.4911 65.9998 24.2402C65.9998 19.2843 62.0888 15.4583 57.2498 15.2553V12.7402ZM53.2498 23.7402C53.2498 22.7737 52.4663 21.9902 51.4998 21.9902C50.5333 21.9902 49.7498 22.7737 49.7498 23.7402V24.7402C49.7498 25.7067 50.5333 26.4902 51.4998 26.4902C52.4663 26.4902 53.2498 25.7067 53.2498 24.7402V23.7402ZM61.2498 23.7402C61.2498 22.7737 60.4663 21.9902 59.4998 21.9902C58.5333 21.9902 57.7498 22.7737 57.7498 23.7402V24.7402C57.7498 25.7067 58.5333 26.4902 59.4998 26.4902C60.4663 26.4902 61.2498 25.7067 61.2498 24.7402V23.7402ZM31.3944 17.0352C34.596 17.2909 38.0288 18.622 41.406 20.6663C41.9298 20.9834 42.2498 21.5511 42.2498 22.1634C42.2498 22.7757 41.9298 23.3434 41.406 23.6605C38.6548 25.3258 35.8182 27.5905 33.0841 30.3246C30.6493 32.7593 28.5868 35.2755 26.9882 37.7402C28.5868 40.2049 30.6493 42.7211 33.0841 45.1559C35.5189 47.5907 38.0351 49.6532 40.4998 51.2517C42.9645 49.6532 45.4806 47.5907 47.9154 45.1559C50.6495 42.4218 52.9142 39.5851 54.5795 36.834C54.8966 36.3102 55.4643 35.9902 56.0766 35.9902C56.6889 35.9902 57.2566 36.3102 57.5737 36.834C59.618 40.2112 60.9491 43.6439 61.2048 46.8456C61.4643 50.0944 60.6096 53.1444 58.2567 55.4972C55.9039 57.85 52.854 58.7047 49.6052 58.4453C46.6895 58.2124 43.5822 57.0877 40.4998 55.3447C37.4173 57.0877 34.31 58.2124 31.3944 58.4453C28.1455 58.7047 25.0956 57.85 22.7428 55.4972C20.39 53.1444 19.5353 50.0944 19.7947 46.8456C20.0276 43.93 21.1523 40.8227 22.8953 37.7402C21.1523 34.6577 20.0276 31.5505 19.7947 28.6348C19.5353 25.386 20.39 22.336 22.7428 19.9833C25.0956 17.6305 28.1455 16.7758 31.3944 17.0352ZM25.0666 34.3445C26.6348 32.1433 28.5037 29.9552 30.6092 27.8497C32.7147 25.7442 34.9028 23.8752 37.1041 22.307C34.9425 21.2693 32.9167 20.6679 31.1158 20.5241C28.6852 20.33 26.7124 20.9634 25.2177 22.4581C23.7229 23.9529 23.0895 25.9257 23.2836 28.3562C23.4274 30.1572 24.0289 32.183 25.0666 34.3445ZM25.0666 41.1359C24.0289 43.2975 23.4274 45.3233 23.2836 47.1242C23.0895 49.5548 23.7229 51.5276 25.2177 53.0223C26.7124 54.5171 28.6852 55.1505 31.1158 54.9564C32.9167 54.8125 34.9425 54.2111 37.1041 53.1734C34.9028 51.6052 32.7147 49.7362 30.6092 47.6307C28.5037 45.5253 26.6348 43.3372 25.0666 41.1359ZM43.8954 53.1734C46.057 54.2111 48.0828 54.8125 49.8838 54.9564C52.3143 55.1505 54.2871 54.5171 55.7819 53.0223C57.2766 51.5276 57.91 49.5548 57.7159 47.1242C57.5721 45.3233 56.9707 43.2975 55.933 41.1359C54.3647 43.3372 52.4958 45.5253 50.3903 47.6307C48.2848 49.7362 46.0967 51.6052 43.8954 53.1734ZM40.4998 31.2402C36.9099 31.2402 33.9998 34.1504 33.9998 37.7402C33.9998 41.3301 36.9099 44.2402 40.4998 44.2402C44.0896 44.2402 46.9998 41.3301 46.9998 37.7402C46.9998 34.1504 44.0896 31.2402 40.4998 31.2402Z" fill="white"/>
</g>
<defs>
<linearGradient id="paint0_linear_155_1013" x1="60.41" y1="83.2378" x2="49.6388" y2="69.4952" gradientUnits="userSpaceOnUse">
<stop stop-color="#FFDA45" stop-opacity="0"/>
<stop offset="1" stop-color="#B53759"/>
</linearGradient>
<clipPath id="clip0_155_1013">
<rect width="87" height="87" fill="white"/>
</clipPath>
</defs>
</svg>
