<svg width="10" height="10" viewBox="0 0 10 10" fill="none" xmlns="http://www.w3.org/2000/svg">
<path fill-rule="evenodd" clip-rule="evenodd" d="M9.31366 1.04702C9.55323 0.807501 9.55323 0.41916 9.31366 0.17964C9.07419 -0.05988 8.68582 -0.05988 8.44635 0.17964L4.74667 3.87929L1.04703 0.17964C0.807501 -0.05988 0.41916 -0.05988 0.17964 0.17964C-0.05988 0.41916 -0.05988 0.807501 0.17964 1.04702L3.87929 4.74667L0.17964 8.44631C-0.05988 8.68588 -0.05988 9.07415 0.17964 9.31372C0.41916 9.55319 0.807501 9.55319 1.04703 9.31372L4.74667 5.61405L8.44635 9.31372C8.68582 9.55319 9.07419 9.55319 9.31366 9.31372C9.55323 9.07415 9.55323 8.68588 9.31366 8.44631L5.61405 4.74667L9.31366 1.04702Z" fill="black"/>
</svg>
