<svg width="14" height="14" viewBox="0 0 14 14" fill="none" xmlns="http://www.w3.org/2000/svg">
<path fill-rule="evenodd" clip-rule="evenodd" d="M9.03741 4.04537C9.21943 4.20428 9.23816 4.48065 9.07926 4.66267L4.49592 9.91267C4.41284 10.0078 4.29268 10.0624 4.16635 10.0624C4.04002 10.0624 3.91985 10.0078 3.83677 9.91267L2.00344 7.81267C1.84453 7.63065 1.86327 7.35427 2.04529 7.19537C2.22731 7.03646 2.50368 7.0552 2.66259 7.23722L4.16635 8.95971L8.4201 4.08722C8.57901 3.9052 8.85539 3.88646 9.03741 4.04537Z" fill="#E9EAEB"/>
<path fill-rule="evenodd" clip-rule="evenodd" d="M11.9682 4.09463C12.1432 4.26127 12.1499 4.53819 11.9833 4.71316L6.98312 9.96316C6.89475 10.0559 6.77015 10.1053 6.64221 10.0983C6.51427 10.0912 6.39586 10.0284 6.31824 9.92648L6.06838 9.59835C5.922 9.40611 5.95918 9.13161 6.15141 8.98523C6.31656 8.85948 6.54242 8.86919 6.69561 8.99631L11.3497 4.1097C11.5163 3.93474 11.7932 3.92799 11.9682 4.09463Z" fill="#E9EAEB"/>
</svg>
