<svg width="26" height="26" viewBox="0 0 26 26" fill="none" xmlns="http://www.w3.org/2000/svg">
<path fill-rule="evenodd" clip-rule="evenodd" d="M22.0485 11.3975L20.189 16.976C18.8779 20.9091 18.2224 22.8757 17.2611 23.4346C16.3466 23.9662 15.2172 23.9662 14.3027 23.4346C13.3414 22.8757 12.6859 20.9091 11.3748 16.9759C11.1643 16.3444 11.059 16.0286 10.8823 15.7647C10.7111 15.5089 10.4914 15.2892 10.2356 15.118C9.97165 14.9413 9.65588 14.836 9.02435 14.6255C5.09116 13.3144 3.12457 12.6589 2.56572 11.6976C2.03408 10.7831 2.03408 9.65368 2.56572 8.73919C3.12457 7.7779 5.09116 7.12237 9.02435 5.81131L14.6028 3.95182C19.476 2.32741 21.9127 1.5152 23.1989 2.80141C24.4851 4.08762 23.6729 6.52424 22.0485 11.3975ZM14.1332 11.8107C13.8176 11.4916 13.8205 10.9772 14.1395 10.6616L18.7009 6.1505C19.02 5.83496 19.5344 5.83781 19.85 6.15686C20.1655 6.47592 20.1626 6.99036 19.8436 7.30589L15.2822 11.817C14.9631 12.1326 14.4487 12.1297 14.1332 11.8107Z" fill="white"/>
</svg>
