<svg width="20" height="20" viewBox="0 0 20 20" fill="none" xmlns="http://www.w3.org/2000/svg">
<path fill-rule="evenodd" clip-rule="evenodd" d="M12.8607 3.35101C11.255 1.8349 8.74528 1.8349 7.13958 3.35101C7.09595 3.3922 7.04806 3.44009 6.9777 3.51045L6.09481 4.39335C3.79467 6.69349 2.1905 9.59619 1.46683 12.7676C1.02629 14.6982 2.23932 16.619 4.17187 17.051L5.06427 17.2505C5.45392 17.3376 5.66137 17.3839 5.8682 17.4258C8.59518 17.9776 11.4051 17.9776 14.132 17.4258C14.3389 17.3839 14.5463 17.3376 14.936 17.2505L15.8284 17.051C17.7609 16.619 18.9739 14.6982 18.5334 12.7676C17.8097 9.59619 16.2056 6.69349 13.9054 4.39334L13.0226 3.51051C12.9522 3.44013 12.9043 3.39221 12.8607 3.35101ZM9.16679 11.6666V5.83331H10.8335V11.6666H9.16679ZM9.37512 12.8125C9.23989 12.8801 9.13024 12.9897 9.06262 13.125C8.8659 13.5184 8.8659 13.9815 9.06262 14.375C9.13024 14.5102 9.23989 14.6199 9.37512 14.6875C9.76857 14.8842 10.2317 14.8842 10.6251 14.6875C10.7604 14.6199 10.87 14.5102 10.9376 14.375C11.1343 13.9815 11.1343 13.5184 10.9376 13.125C10.87 12.9897 10.7604 12.8801 10.6251 12.8125C10.2317 12.6158 9.76857 12.6158 9.37512 12.8125Z" fill="#EF4444"/>
</svg>
