
<svg width="24" height="24" viewBox="0 0 24 24" fill="none" xmlns="http://www.w3.org/2000/svg">
<path d="M16.4062 6.12558C14.9256 5.99295 13.4688 6.85995 12 6.85995C10.5312 6.85995 9.07401 5.98791 7.59375 6.12558C4.65625 6.40097 3.1875 9.06308 3.1875 13.4693C3.1875 17.1412 6.125 22.2818 8.29141 22.2818C10.4578 22.2818 10.6754 21.1803 12 21.1803C13.3247 21.1803 13.5417 22.2818 15.7086 22.2818C17.8755 22.2818 20.8125 17.1412 20.8125 13.4693C20.8125 9.06308 19.4815 6.40097 16.4062 6.12558Z" stroke="#4FAF5A" stroke-miterlimit="10"/>
<path d="M15.1177 4.06692C14.1537 5.03086 13.0217 5.30627 12.4176 5.38847C12.3624 5.39645 12.3061 5.3917 12.253 5.37462C12.1998 5.35758 12.1513 5.32864 12.1111 5.28997C12.0708 5.25139 12.0399 5.20404 12.0206 5.15166C12.0013 5.09931 11.9943 5.04326 11.9999 4.98772C12.1089 3.95517 12.5731 2.9925 13.3132 2.2643C14.3231 1.25443 15.4248 1.0295 16.0086 0.985893C16.0632 0.980923 16.1181 0.988194 16.1695 1.00718C16.2208 1.02618 16.2672 1.0564 16.3054 1.09565C16.3435 1.1349 16.3724 1.18218 16.3899 1.23404C16.4074 1.28589 16.4131 1.34101 16.4066 1.39535C16.2914 2.40599 15.837 3.34774 15.1177 4.06692Z" fill="#4FAF5A"/>
<path d="M10.1647 16.4072C10.7732 16.4072 11.2664 15.4207 11.2664 14.2038C11.2664 12.987 10.7732 12.0005 10.1647 12.0005C9.55624 12.0005 9.06299 12.987 9.06299 14.2038C9.06299 15.4207 9.55624 16.4072 10.1647 16.4072Z" fill="#4FAF5A"/>
<path d="M13.8361 16.4072C14.4445 16.4072 14.9377 15.4207 14.9377 14.2038C14.9377 12.987 14.4445 12.0005 13.8361 12.0005C13.2276 12.0005 12.7344 12.987 12.7344 14.2038C12.7344 15.4207 13.2276 16.4072 13.8361 16.4072Z" fill="#4FAF5A"/>
</svg>
