<svg width="24" height="24" viewBox="0 0 24 24" fill="none" xmlns="http://www.w3.org/2000/svg">
<path fill-rule="evenodd" clip-rule="evenodd" d="M12.4472 5.89445L7.17448 8.53081C6.89593 8.67008 6.67006 8.89595 6.53078 9.1745C6.23972 9.75664 6.04391 10.3725 5.94336 11H20V13H5.94336C6.04391 13.6275 6.23972 14.2434 6.53078 14.8255C6.67006 15.1041 6.89593 15.33 7.17448 15.4692L12.4472 18.1056L11.5528 19.8944L6.28005 17.2581C5.61444 16.9253 5.07473 16.3856 4.74193 15.72C3.57105 13.3782 3.57105 10.6218 4.74193 8.28008C5.07473 7.61447 5.61444 7.07476 6.28005 6.74195L6.70938 7.6006L6.28005 6.74195L11.5528 4.10559L12.4472 5.89445Z" fill="#111214"/>
</svg>
