<svg width="14" height="20" viewBox="0 0 14 20" fill="none" xmlns="http://www.w3.org/2000/svg">
<g clip-path="url(#clip0_89_5071)">
<path d="M0.293945 9.29374C-0.0966797 9.68437 -0.0966797 10.3187 0.293945 10.7094L5.29395 15.7094C5.68457 16.1 6.31895 16.1 6.70957 15.7094C7.1002 15.3187 7.1002 14.6844 6.70957 14.2937L3.4127 11H13.0002C13.5533 11 14.0002 10.5531 14.0002 9.99999C14.0002 9.44687 13.5533 8.99999 13.0002 8.99999H3.41582L6.70645 5.70624C7.09707 5.31562 7.09707 4.68124 6.70645 4.29062C6.31582 3.89999 5.68145 3.89999 5.29082 4.29062L0.29082 9.29062L0.293945 9.29374Z" fill="white"/>
</g>
<defs>
<clipPath id="clip0_89_5071">
<path d="M0 2H14V18H0V2Z" fill="white"/>
</clipPath>
</defs>
</svg>
