<svg width="18" height="18" viewBox="0 0 18 18" fill="none" xmlns="http://www.w3.org/2000/svg">
<path d="M14.25 12.75V8.85C13.875 8.925 13.5 9 13.125 9H12.75V13.5H5.25V8.25C5.25 6.15 6.9 4.5 9 4.5C9.075 3.525 9.525 2.7 10.125 2.025C9.9 1.725 9.45 1.5 9 1.5C8.175 1.5 7.5 2.175 7.5 3V3.225C5.25 3.9 3.75 5.925 3.75 8.25V12.75L2.25 14.25V15H15.75V14.25L14.25 12.75ZM7.5 15.75C7.5 16.575 8.175 17.25 9 17.25C9.825 17.25 10.5 16.575 10.5 15.75H7.5Z" fill="#4FAF5A"/>
<circle cx="13.5" cy="3.5" r="2.5" fill="#C01212"/>
</svg>
