<svg width="24" height="24" viewBox="0 0 24 24" fill="none" xmlns="http://www.w3.org/2000/svg">
<path fill-rule="evenodd" clip-rule="evenodd" d="M17.2865 18.7005L20.2931 21.7071L21.7074 20.2929L3.70735 2.29291L2.29314 3.70712L5.02688 6.44087C4.84433 6.59074 4.66545 6.74737 4.49057 6.91076C4.1423 7.23615 3.76366 7.65688 3.10142 8.39273L2.38077 9.19346C2.23847 9.35157 2.11812 9.52814 2.02299 9.7184C1.30484 11.1547 1.30484 12.8453 2.02299 14.2817C2.11813 14.4719 2.23847 14.6485 2.38077 14.8066L3.10139 15.6073C3.76365 16.3432 4.14229 16.7639 4.49057 17.0893C8.03179 20.3979 13.2129 20.9349 17.2865 18.7005ZM14.677 16.091L13.1426 14.5566C12.3085 14.7798 11.4251 14.7542 10.6022 14.4799C10.0914 14.3096 9.69061 13.9088 9.52036 13.3981C9.24606 12.5752 9.22049 11.6918 9.44363 10.8576L7.90931 9.32329C7.79453 9.52728 7.69835 9.74343 7.62299 9.9695C7.18365 11.2875 7.18365 12.7125 7.62299 14.0305C7.99232 15.1385 8.86175 16.0079 9.96973 16.3773C11.2878 16.8166 12.7127 16.8166 14.0308 16.3773C14.2568 16.3019 14.473 16.2057 14.677 16.091Z" fill="#BABBBE"/>
<path d="M20.8988 15.6076C20.5259 16.022 20.2429 16.3364 20.0046 16.5902L16.5972 13.1827C16.7972 12.1151 16.724 11.009 16.3775 9.9695C16.0082 8.86152 15.1387 7.99209 14.0308 7.62276C12.9912 7.27625 11.8852 7.20303 10.8175 7.4031L8.0821 4.66765C11.8977 3.21518 16.3547 3.96288 19.5099 6.91076C19.8581 7.23615 20.2368 7.65688 20.899 8.39273L21.6197 9.19346C21.762 9.35157 21.8823 9.52814 21.9774 9.7184C22.6956 11.1547 22.6956 12.8453 21.9774 14.2817C21.8823 14.4719 21.762 14.6485 21.6197 14.8066L20.8988 15.6076Z" fill="#BABBBE"/>
<path d="M14.4801 10.602C14.5482 10.8061 14.6009 11.014 14.6384 11.2239L12.7763 9.3619C12.9863 9.39933 13.1942 9.45208 13.3983 9.52013C13.9091 9.69038 14.3099 10.0912 14.4801 10.602Z" fill="#BABBBE"/>
</svg>
