<svg width="24" height="24" viewBox="0 0 24 24" fill="none" xmlns="http://www.w3.org/2000/svg">
<path d="M10.6022 9.52011C11.5097 9.21761 12.4908 9.21761 13.3983 9.52011C13.9091 9.69037 14.3099 10.0912 14.4801 10.6019C14.7826 11.5094 14.7826 12.4906 14.4801 13.3981C14.3099 13.9088 13.9091 14.3096 13.3983 14.4799C12.4908 14.7824 11.5097 14.7824 10.6022 14.4799C10.0914 14.3096 9.69061 13.9088 9.52036 13.3981C9.21786 12.4906 9.21786 11.5094 9.52036 10.6019C9.69061 10.0912 10.0914 9.69037 10.6022 9.52011Z" fill="#BABBBE"/>
<path fill-rule="evenodd" clip-rule="evenodd" d="M4.49057 6.91074C8.71801 2.96107 15.2824 2.96107 19.5099 6.91074C19.8581 7.23614 20.2368 7.65686 20.899 8.39272L21.6197 9.19344C21.762 9.35155 21.8823 9.52813 21.9774 9.71839C22.6956 11.1547 22.6956 12.8453 21.9774 14.2816C21.8823 14.4719 21.762 14.6485 21.6197 14.8066L20.899 15.6073C20.2369 16.343 19.8581 16.7639 19.5099 17.0893C15.2824 21.039 8.71801 21.039 4.49057 17.0893C4.14229 16.7639 3.76365 16.3432 3.10139 15.6073L2.38077 14.8066C2.23847 14.6485 2.11813 14.4719 2.02299 14.2816C1.30484 12.8453 1.30484 11.1547 2.02299 9.71839C2.11812 9.52813 2.23847 9.35155 2.38077 9.19344L3.10142 8.39272C3.76366 7.65686 4.1423 7.23614 4.49057 6.91074ZM14.0308 7.62275C12.7127 7.1834 11.2878 7.1834 9.96973 7.62275C8.86175 7.99207 7.99232 8.86151 7.62299 9.96949C7.18365 11.2875 7.18365 12.7125 7.62299 14.0305C7.99232 15.1385 8.86175 16.0079 9.96973 16.3773C11.2878 16.8166 12.7127 16.8166 14.0308 16.3773C15.1387 16.0079 16.0082 15.1385 16.3775 14.0305C16.8168 12.7125 16.8168 11.2875 16.3775 9.96949C16.0082 8.86151 15.1387 7.99207 14.0308 7.62275Z" fill="#BABBBE"/>
</svg>
