<svg width="24" height="24" viewBox="0 0 24 24" fill="none" xmlns="http://www.w3.org/2000/svg">
<path fill-rule="evenodd" clip-rule="evenodd" d="M12.4472 4.10559L17.7199 6.74195L17.2848 7.61221L17.7199 6.74195C18.3855 7.07476 18.9253 7.61447 19.2581 8.28008C20.4289 10.6218 20.4289 13.3782 19.2581 15.72C18.9253 16.3856 18.3855 16.9253 17.7199 17.2581L12.4472 19.8944L11.5528 18.1056L16.8255 15.4692C17.1041 15.33 17.3299 15.1041 17.4692 14.8255C17.7603 14.2434 17.9561 13.6275 18.0566 13H4V11H18.0566C17.9561 10.3725 17.7603 9.75664 17.4692 9.1745C17.3299 8.89595 17.1041 8.67008 16.8255 8.53081L17.2727 7.63638L16.8255 8.53081L11.5528 5.89445L12.4472 4.10559Z" fill="#111214"/>
</svg>