<svg width="64" height="64" viewBox="0 0 64 64" fill="none" xmlns="http://www.w3.org/2000/svg">
<rect width="64" height="64" rx="21" fill="#9333EA"/>
<path d="M33.0539 24.2382C31.7882 23.3342 30.0692 24.4457 30.3743 25.9708L30.8002 28.1007C30.8716 28.4572 30.76 28.8258 30.5029 29.0829C30.1363 29.4494 29.562 29.5063 29.1308 29.2187L28.1557 28.5687C27.3174 28.0098 26.1773 28.3639 25.8032 29.2994L25.0298 31.2328C24.3324 32.9763 24.1571 34.885 24.5254 36.7264C24.9012 38.6055 26.2551 40.1392 28.0731 40.7452L28.476 40.8795C30.7634 41.6419 33.2364 41.6419 35.5239 40.8795L35.7954 40.7889C37.6946 40.1559 39.109 38.5537 39.5016 36.5906L39.5777 36.2099C39.8695 34.7511 39.8695 33.249 39.5777 31.7902C39.1442 29.6225 37.9019 27.7011 36.103 26.4162L33.0539 24.2382Z" fill="white"/>
</svg>
