<svg width="11" height="11" viewBox="0 0 11 11" fill="none" xmlns="http://www.w3.org/2000/svg">
<path d="M5.28753 11H5.71247C8.05019 11 10.0336 9.97452 10.7316 8.55255C10.8329 8.34554 10.601 8.13217 10.2796 8.13217H8.97068C8.55399 8.13217 8.21734 7.90446 8.21734 7.62341C8.21734 7.34156 8.55399 7.11306 8.97068 7.11306H10.2396C10.6598 7.11306 11 6.88296 11 6.59873C11 6.31449 10.6598 6.0844 10.2396 6.0844H8.97068C8.55399 6.0844 8.21734 5.85589 8.21734 5.57484C8.21734 5.29299 8.55399 5.06449 8.97068 5.06449H10.2396C10.6598 5.06449 11 4.83439 11 4.55016C11 4.26592 10.6598 4.03583 10.2396 4.03583H8.97068C8.55399 4.03583 8.21734 3.80733 8.21734 3.52548C8.21734 3.24443 8.55399 3.01592 8.97068 3.01592H10.3467C10.6622 3.01592 10.8882 2.8121 10.8034 2.60589C10.1784 1.10191 8.13612 0 5.71247 0H5.28753C2.36715 0 0 1.60032 0 3.57643V7.42357C0 9.39889 2.36715 11 5.28753 11Z" fill="white"/>
</svg>
