<svg width="17" height="17" viewBox="0 0 17 17" fill="none" xmlns="http://www.w3.org/2000/svg">
<path opacity="0.4" d="M8.35 0C3.50833 0 0 3.95 0 8.33333C0 9.73333 0.408333 11.175 1.125 12.4917C1.25833 12.7083 1.275 12.9833 1.18333 13.2417L0.625 15.1083C0.5 15.5583 0.883333 15.8917 1.30833 15.7583L2.99167 15.2583C3.45 15.1083 3.80833 15.3 4.23417 15.5583C5.45083 16.275 6.96667 16.6417 8.33333 16.6417C12.4667 16.6417 16.6667 13.45 16.6667 8.30833C16.6667 3.875 13.0833 0 8.35 0" fill="white"/>
<path d="M4.4751 7.27496C5.06664 7.27496 5.54227 7.74988 5.54248 8.34137C5.54248 8.9247 5.06676 9.40042 4.4751 9.40875C3.89188 9.40861 3.40869 8.92462 3.40869 8.34137C3.4089 7.74997 3.88368 7.2751 4.4751 7.27496ZM8.31787 7.27496C8.9092 7.27522 9.38408 7.75003 9.38428 8.34137C9.38428 8.92455 8.90932 9.4085 8.31787 9.40875C7.72626 9.40042 7.25057 8.92515 7.25049 8.33356C7.25049 7.75022 7.73454 7.26663 8.31787 7.27496ZM12.1587 7.27496C12.7502 7.27496 13.2259 7.74987 13.2261 8.34137C13.2261 8.9247 12.7504 9.40875 12.1587 9.40875C11.5671 9.40861 11.0923 8.92462 11.0923 8.34137C11.0925 7.74996 11.5673 7.2751 12.1587 7.27496Z" fill="white"/>
</svg>
