<svg width="18" height="18" viewBox="0 0 18 18" fill="none" xmlns="http://www.w3.org/2000/svg">
<path d="M9 13.8637L12.1823 10.6822C12.8115 10.0529 13.24 9.25105 13.4136 8.37816C13.5872 7.50527 13.498 6.60051 13.1574 5.77828C12.8168 4.95606 12.24 4.2533 11.5 3.75887C10.76 3.26444 9.88999 3.00053 9 3.00053C8.11002 3.00053 7.24002 3.26444 6.50002 3.75887C5.76001 4.2533 5.18323 4.95606 4.84262 5.77828C4.502 6.60051 4.41284 7.50527 4.58641 8.37816C4.75998 9.25105 5.18849 10.0529 5.81775 10.6822L9 13.8637ZM13.2428 11.7427L9 15.9855L4.75725 11.7427C3.91817 10.9036 3.34675 9.83452 3.11527 8.67064C2.88378 7.50676 3.00262 6.30038 3.45676 5.20404C3.91089 4.1077 4.67993 3.17065 5.66661 2.51137C6.6533 1.8521 7.81333 1.50021 9 1.50021C10.1867 1.50021 11.3467 1.8521 12.3334 2.51137C13.3201 3.17065 14.0891 4.1077 14.5433 5.20404C14.9974 6.30038 15.1162 7.50676 14.8847 8.67064C14.6533 9.83452 14.0818 10.9036 13.2428 11.7427ZM3.75 16.5H14.25V18H3.75V16.5Z" fill="white"/>
</svg>
