<svg width="64" height="64" viewBox="0 0 64 64" fill="none" xmlns="http://www.w3.org/2000/svg">
<rect width="64" height="64" rx="21" fill="#2563EB"/>
<path fill-rule="evenodd" clip-rule="evenodd" d="M28.0002 29.1678V25.3246C28.0002 24.1031 28.7818 23.0187 29.9406 22.6325C31.2775 22.1868 32.723 22.1868 34.0599 22.6325C35.2186 23.0187 36.0002 24.1031 36.0002 25.3246V29.1679C36.301 29.2371 36.6004 29.3143 36.8981 29.3994L37.4978 29.5707C38.4454 29.8415 39.2144 30.5356 39.5804 31.4506C40.4918 33.7291 40.4918 36.2708 39.5804 38.5492C39.2144 39.4643 38.4454 40.1584 37.4978 40.4292L36.8981 40.6005C33.6968 41.5152 30.3034 41.5152 27.1022 40.6005L26.5025 40.4292C25.5548 40.1584 24.7859 39.4643 24.4199 38.5492C23.5085 36.2708 23.5085 33.7291 24.4199 31.4506C24.7859 30.5356 25.5548 29.8415 26.5025 29.5707L27.1022 29.3994C27.4 29.3143 27.6994 29.2371 28.0002 29.1678ZM30.5731 24.5298C31.4995 24.221 32.501 24.221 33.4274 24.5298C33.7695 24.6438 34.0002 24.964 34.0002 25.3246V28.8259C32.6712 28.6759 31.3293 28.6759 30.0002 28.8259V25.3246C30.0002 24.964 30.231 24.6438 30.5731 24.5298ZM31.0001 36.9999V32.9999H33.0001V36.9999H31.0001Z" fill="white"/>
</svg>
