<svg width="64" height="64" viewBox="0 0 64 64" fill="none" xmlns="http://www.w3.org/2000/svg">
<rect width="64" height="64" rx="21" fill="#F97316"/>
<path d="M24.9613 25.5716C29.4995 23.8697 34.5007 23.8697 39.039 25.5716L39.1837 25.6258C39.3676 25.6948 39.5446 25.7773 39.7136 25.8722L35.9253 29.6605C35.6396 29.9462 35.2817 30.1488 34.8898 30.2468C32.9925 30.7211 31.0075 30.7211 29.1102 30.2468C28.7183 30.1488 28.3604 29.9462 28.0747 29.6605L24.2865 25.8723C24.4555 25.7773 24.6326 25.6948 24.8165 25.6258L24.9613 25.5716Z" fill="white"/>
<path d="M22.8595 27.2737C22.7638 27.437 22.6798 27.6083 22.6085 27.7863C21.5283 30.4868 21.4403 33.4828 22.3601 36.2421L22.5063 36.681C22.954 38.0238 24.0566 39.0449 25.4298 39.3882L25.9009 39.506C29.9054 40.5071 34.0948 40.5071 38.0993 39.506L38.5704 39.3882C39.9436 39.0449 41.0463 38.0238 41.4939 36.681L41.6402 36.2421C42.5599 33.4828 42.4719 30.4868 41.3917 27.7863C41.3204 27.6082 41.2364 27.4369 41.1407 27.2735L37.3395 31.0747C36.7975 31.6167 36.1185 32.0012 35.3749 32.187C33.1591 32.741 30.8409 32.741 28.6251 32.187C27.8815 32.0012 27.2025 31.6167 26.6605 31.0747L22.8595 27.2737Z" fill="white"/>
</svg>
