<svg width="64" height="64" viewBox="0 0 64 64" fill="none" xmlns="http://www.w3.org/2000/svg">
<rect width="64" height="64" rx="21" fill="#F97316"/>
<path d="M29.3318 24.7691C27.481 24.2403 25.519 24.2403 23.6681 24.7691L23.5819 24.7937C22.7169 25.0409 22.0408 25.717 21.7937 26.5819L21.7329 26.7948C21.2277 28.5629 21.2277 30.4372 21.7329 32.2053C22.0364 33.2676 23.0074 34 24.1122 34H24.9437C25.0627 34 25.1258 34.0002 25.1719 34.0018L25.1785 34.0021L25.18 34.0085C25.1907 34.0534 25.2032 34.1153 25.2265 34.2319L25.7373 36.7859C25.7922 37.0605 25.8466 37.3329 25.9158 37.5599C25.9936 37.8152 26.1143 38.1016 26.3517 38.3583C26.4765 38.4931 26.6192 38.6101 26.7758 38.7059C27.074 38.8884 27.3785 38.9506 27.6442 38.9768C27.8804 39.0001 28.158 39.0001 28.438 39L29.1662 39C30.1362 39 30.964 38.2988 31.1234 37.342L31.178 37.0148C31.7314 33.6945 31.7314 30.3056 31.178 26.9853L31.1476 26.8029C30.9856 25.8313 30.2789 25.0397 29.3318 24.7691Z" fill="white"/>
<path d="M34.6681 24.7691C36.519 24.2403 38.481 24.2403 40.3318 24.7691C41.2789 25.0397 41.9856 25.8313 42.1476 26.8029L42.178 26.9853C42.7314 30.3056 42.7314 33.6945 42.178 37.0148L42.1234 37.342C41.964 38.2988 41.1362 39 40.1662 39L39.4381 39C39.1581 39.0001 38.8804 39.0001 38.6442 38.9768C38.3785 38.9506 38.074 38.8884 37.7758 38.7059C37.6192 38.6101 37.4765 38.4931 37.3517 38.3583C37.1143 38.1016 36.9936 37.8152 36.9158 37.5599C36.8466 37.3329 36.7922 37.0606 36.7374 36.786L36.2265 34.2319C36.2032 34.1153 36.1907 34.0534 36.18 34.0085L36.1785 34.0021L36.1719 34.0018C36.1258 34.0002 36.0627 34 35.9437 34H35.1122C34.0074 34 33.0364 33.2676 32.7329 32.2053C32.2277 30.4372 32.2277 28.5629 32.7329 26.7948L32.7937 26.5819C33.0408 25.717 33.7169 25.0409 34.5819 24.7937L34.6681 24.7691Z" fill="white"/>
</svg>
