<svg width="24" height="24" viewBox="0 0 24 24" fill="none" xmlns="http://www.w3.org/2000/svg">
<g clip-path="url(#clip0_112_1138)">
<path fill-rule="evenodd" clip-rule="evenodd" d="M3.42878 2.78592C3.25828 2.78592 3.09477 2.85365 2.9742 2.9742C2.85366 3.09477 2.78592 3.25828 2.78592 3.42878V6.85735C2.78592 7.44909 2.30623 7.92878 1.7145 7.92878C1.12276 7.92878 0.643066 7.44909 0.643066 6.85735V3.42878C0.643066 2.68996 0.936561 1.98141 1.45898 1.45898C1.98141 0.936561 2.68996 0.643066 3.42878 0.643066H6.85735C7.44909 0.643066 7.92878 1.12276 7.92878 1.71449C7.92878 2.30623 7.44909 2.78592 6.85735 2.78592H3.42878ZM17.1431 0.643066C16.5513 0.643066 16.0716 1.12276 16.0716 1.71449C16.0716 2.30623 16.5513 2.78592 17.1431 2.78592H20.5716C20.7422 2.78592 20.9056 2.85365 21.0263 2.9742C21.1468 3.09477 21.2145 3.25828 21.2145 3.42878V6.85735C21.2145 7.44909 21.6942 7.92878 22.2859 7.92878C22.8777 7.92878 23.3574 7.44909 23.3574 6.85735V3.42878C23.3574 2.68996 23.0639 1.98141 22.5414 1.45898C22.019 0.936561 21.3105 0.643066 20.5716 0.643066H17.1431ZM12.0002 6.00021C12.7103 6.00021 13.2859 6.57585 13.2859 7.28592V16.7145C13.2859 17.4246 12.7103 18.0002 12.0002 18.0002C11.2901 18.0002 10.7145 17.4246 10.7145 16.7145V7.28592C10.7145 6.57585 11.2901 6.00021 12.0002 6.00021ZM7.28592 7.71449C7.996 7.71449 8.57164 8.29013 8.57164 9.00021V15.0002C8.57164 15.7103 7.996 16.2859 7.28592 16.2859C6.57585 16.2859 6.00021 15.7103 6.00021 15.0002V9.00021C6.00021 8.29013 6.57585 7.71449 7.28592 7.71449ZM18.0002 9.00021C18.0002 8.29013 17.4246 7.71449 16.7145 7.71449C16.0044 7.71449 15.4288 8.29013 15.4288 9.00021V15.0002C15.4288 15.7103 16.0044 16.2859 16.7145 16.2859C17.4246 16.2859 18.0002 15.7103 18.0002 15.0002V9.00021ZM22.2859 16.0716C22.8777 16.0716 23.3574 16.5513 23.3574 17.1431V20.5716C23.3574 21.3105 23.0639 22.019 22.5414 22.5414C22.019 23.0639 21.3105 23.3574 20.5716 23.3574H17.1431C16.5513 23.3574 16.0716 22.8777 16.0716 22.2859C16.0716 21.6942 16.5513 21.2145 17.1431 21.2145H20.5716C20.7422 21.2145 20.9056 21.1468 21.0263 21.0263C21.1468 20.9056 21.2145 20.7422 21.2145 20.5716V17.1431C21.2145 16.5513 21.6942 16.0716 22.2859 16.0716ZM2.78592 17.1431C2.78592 16.5513 2.30623 16.0716 1.7145 16.0716C1.12276 16.0716 0.643066 16.5513 0.643066 17.1431V20.5716C0.643066 21.3105 0.936561 22.019 1.45898 22.5414C1.98141 23.0639 2.68996 23.3574 3.42878 23.3574H6.85735C7.44909 23.3574 7.92878 22.8777 7.92878 22.2859C7.92878 21.6942 7.44909 21.2145 6.85735 21.2145H3.42878C3.25828 21.2145 3.09477 21.1468 2.9742 21.0263C2.85366 20.9056 2.78592 20.7422 2.78592 20.5716V17.1431Z" fill="#4FAF5A"/>
</g>
<defs>
<clipPath id="clip0_112_1138">
<rect width="24" height="24" fill="white"/>
</clipPath>
</defs>
</svg>
