<svg width="16" height="16" viewBox="0 0 16 16" fill="none" xmlns="http://www.w3.org/2000/svg">
<path d="M13.8868 5.34005L9.52014 1.84672C8.6668 1.16672 7.33347 1.16005 6.4868 1.84005L2.12014 5.34005C1.49347 5.84005 1.11347 6.84005 1.2468 7.62672L2.0868 12.6534C2.28014 13.7801 3.3268 14.6667 4.4668 14.6667H11.5335C12.6601 14.6667 13.7268 13.7601 13.9201 12.6467L14.7601 7.62005C14.8801 6.84005 14.5001 5.84005 13.8868 5.34005ZM8.50014 12.0001C8.50014 12.2734 8.27347 12.5001 8.00014 12.5001C7.7268 12.5001 7.50014 12.2734 7.50014 12.0001V10.0001C7.50014 9.72672 7.7268 9.50005 8.00014 9.50005C8.27347 9.50005 8.50014 9.72672 8.50014 10.0001V12.0001Z" fill="#878787"/>
</svg>
