<svg width="16" height="16" viewBox="0 0 16 16" fill="none" xmlns="http://www.w3.org/2000/svg">
<path d="M2.66667 1.33337H13.3333C13.7015 1.33337 14 1.63185 14 2.00004V14.8509C14 15.035 13.8507 15.1843 13.6667 15.1843C13.6199 15.1843 13.5736 15.1744 13.5309 15.1553L8 12.6876L2.46915 15.1553C2.30103 15.2304 2.10394 15.1548 2.02893 14.9868C2.00985 14.944 2 14.8977 2 14.8509V2.00004C2 1.63185 2.29848 1.33337 2.66667 1.33337ZM12.6667 13.3097V2.66671H3.33333V13.3097L8 11.2275L12.6667 13.3097ZM8 9.00004L6.04071 10.0301L6.41491 7.84837L4.82981 6.30332L7.02033 5.98501L8 4.00004L8.97967 5.98501L11.1702 6.30332L9.58507 7.84837L9.95927 10.0301L8 9.00004Z" fill="#4FAF5A"/>
</svg>
