<svg width="16" height="16" viewBox="0 0 16 16" fill="none" xmlns="http://www.w3.org/2000/svg">
<path d="M2.66667 1.3335H13.3333C13.7015 1.3335 14 1.63198 14 2.00016V14.851C14 15.0352 13.8507 15.1844 13.6667 15.1844C13.6199 15.1844 13.5736 15.1745 13.5309 15.1554L8 12.6877L2.46915 15.1554C2.30103 15.2305 2.10394 15.155 2.02893 14.9869C2.00985 14.9441 2 14.8978 2 14.851V2.00016C2 1.63198 2.29848 1.3335 2.66667 1.3335ZM12.6667 13.3098V2.66683H3.33333V13.3098L8 11.2276L12.6667 13.3098ZM8 9.00016L6.04071 10.0302L6.41491 7.8485L4.82981 6.30344L7.02033 5.98514L8 4.00016L8.97967 5.98514L11.1702 6.30344L9.58507 7.8485L9.95927 10.0302L8 9.00016Z" fill="#878787"/>
</svg>
