<svg width="16" height="16" viewBox="0 0 16 16" fill="none" xmlns="http://www.w3.org/2000/svg">
<path d="M13.3368 14.6668H2.67008C2.3019 14.6668 2.00342 14.3684 2.00342 14.0002V2.00016C2.00342 1.63198 2.3019 1.3335 2.67008 1.3335H13.3368C13.705 1.3335 14.0034 1.63198 14.0034 2.00016V14.0002C14.0034 14.3684 13.705 14.6668 13.3368 14.6668ZM12.6701 13.3335V2.66683H3.33675V13.3335H12.6701ZM6.00342 4.00016V5.3335C6.00342 6.43806 6.89883 7.3335 8.00343 7.3335C9.10796 7.3335 10.0034 6.43806 10.0034 5.3335V4.00016H11.3368V5.3335C11.3368 7.17443 9.84436 8.66683 8.00343 8.66683C6.16247 8.66683 4.67008 7.17443 4.67008 5.3335V4.00016H6.00342Z" fill="#878787"/>
</svg>
