<svg width="16" height="16" viewBox="0 0 16 16" fill="none" xmlns="http://www.w3.org/2000/svg">
<path d="M13.3368 14.6667H2.67008C2.3019 14.6667 2.00342 14.3682 2.00342 14V2.00004C2.00342 1.63185 2.3019 1.33337 2.67008 1.33337H13.3368C13.705 1.33337 14.0034 1.63185 14.0034 2.00004V14C14.0034 14.3682 13.705 14.6667 13.3368 14.6667ZM12.6701 13.3334V2.66671H3.33675V13.3334H12.6701ZM6.00342 4.00004V5.33337C6.00342 6.43794 6.89883 7.33337 8.00343 7.33337C9.10796 7.33337 10.0034 6.43794 10.0034 5.33337V4.00004H11.3368V5.33337C11.3368 7.17431 9.84436 8.66671 8.00343 8.66671C6.16247 8.66671 4.67008 7.17431 4.67008 5.33337V4.00004H6.00342Z" fill="#4FAF5A"/>
</svg>
