<svg width="15" height="15" viewBox="0 0 15 15" fill="none" xmlns="http://www.w3.org/2000/svg">
<path d="M7.5 15C3.35786 15 0 11.6421 0 7.5C0 3.35786 3.35786 0 7.5 0C11.6421 0 15 3.35786 15 7.5C15 11.6421 11.6421 15 7.5 15ZM7.5 13.5C10.8137 13.5 13.5 10.8137 13.5 7.5C13.5 4.18629 10.8137 1.5 7.5 1.5C4.18629 1.5 1.5 4.18629 1.5 7.5C1.5 10.8137 4.18629 13.5 7.5 13.5ZM3.75 7.5H5.25C5.25 8.74267 6.25733 9.75 7.5 9.75C8.74267 9.75 9.75 8.74267 9.75 7.5H11.25C11.25 9.57105 9.57105 11.25 7.5 11.25C5.42894 11.25 3.75 9.57105 3.75 7.5Z" fill="#878787"/>
</svg>
